<svg xmlns="http://www.w3.org/2000/svg" xmlns:xlink="http://www.w3.org/1999/xlink" contentStyleType="text/css" data-diagram-type="CLASS" height="300px" preserveAspectRatio="none" style="width:526px;height:300px;background:#FFFFFF;" version="1.1" viewBox="0 0 526 300" width="526px" zoomAndPan="magnify"><defs/><g><!--class Duck--><g id="elem_Duck"><rect codeLine="1" fill="#F1F1F1" height="80.5938" id="Duck" rx="2.5" ry="2.5" style="stroke:#181818;stroke-width:0.5;" width="113.1445" x="162.86" y="188.33"/><ellipse cx="198.4189" cy="204.33" fill="#ADD1B2" rx="11" ry="11" style="stroke:#181818;stroke-width:1;"/><path d="M201.3877,209.9706 Q200.8096,210.2675 200.1689,210.4081 Q199.5283,210.5644 198.8252,210.5644 Q196.3252,210.5644 194.9971,208.9237 Q193.6846,207.2675 193.6846,204.1425 Q193.6846,201.0175 194.9971,199.3612 Q196.3252,197.705 198.8252,197.705 Q199.5283,197.705 200.1689,197.8612 Q200.8252,198.0175 201.3877,198.3144 L201.3877,201.0331 Q200.7627,200.455 200.1689,200.1894 Q199.5752,199.9081 198.9502,199.9081 Q197.6064,199.9081 196.9189,200.9862 Q196.2314,202.0487 196.2314,204.1425 Q196.2314,206.2362 196.9189,207.3144 Q197.6064,208.3769 198.9502,208.3769 Q199.5752,208.3769 200.1689,208.1112 Q200.7627,207.83 201.3877,207.2519 L201.3877,209.9706 Z " fill="#000000"/><text fill="#000000" font-family="sans-serif" font-size="14" lengthAdjust="spacing" textLength="35.458" x="216.9876" y="209.1767">Duck</text><line style="stroke:#181818;stroke-width:0.5;" x1="163.86" x2="275.0045" y1="220.33" y2="220.33"/><line style="stroke:#181818;stroke-width:0.5;" x1="163.86" x2="275.0045" y1="228.33" y2="228.33"/><ellipse cx="173.86" cy="241.9784" fill="#84BE84" rx="3" ry="3" style="stroke:#038048;stroke-width:1;"/><text fill="#000000" font-family="sans-serif" font-size="14" lengthAdjust="spacing" textLength="87.1445" x="182.86" y="245.3251">void quack()</text><ellipse cx="173.86" cy="258.2753" fill="#84BE84" rx="3" ry="3" style="stroke:#038048;stroke-width:1;"/><text fill="#000000" font-family="sans-serif" font-size="14" lengthAdjust="spacing" textLength="81.2725" x="182.86" y="261.622">void swim()</text></g><!--class ElectricDuck--><g id="elem_ElectricDuck"><rect codeLine="5" fill="#F1F1F1" height="129.4844" id="ElectricDuck" rx="2.5" ry="2.5" style="stroke:#181818;stroke-width:0.5;" width="120.8691" x="7" y="163.89"/><ellipse cx="22.6899" cy="179.89" fill="#ADD1B2" rx="11" ry="11" style="stroke:#181818;stroke-width:1;"/><path d="M25.6587,185.5306 Q25.0806,185.8275 24.4399,185.9681 Q23.7993,186.1244 23.0962,186.1244 Q20.5962,186.1244 19.2681,184.4838 Q17.9556,182.8275 17.9556,179.7025 Q17.9556,176.5775 19.2681,174.9213 Q20.5962,173.265 23.0962,173.265 Q23.7993,173.265 24.4399,173.4213 Q25.0962,173.5775 25.6587,173.8744 L25.6587,176.5931 Q25.0337,176.015 24.4399,175.7494 Q23.8462,175.4681 23.2212,175.4681 Q21.8774,175.4681 21.1899,176.5463 Q20.5024,177.6088 20.5024,179.7025 Q20.5024,181.7963 21.1899,182.8744 Q21.8774,183.9369 23.2212,183.9369 Q23.8462,183.9369 24.4399,183.6713 Q25.0337,183.39 25.6587,182.8119 L25.6587,185.5306 Z " fill="#000000"/><text fill="#000000" font-family="sans-serif" font-size="14" lengthAdjust="spacing" textLength="87.3359" x="36.8433" y="184.7367">ElectricDuck</text><line style="stroke:#181818;stroke-width:0.5;" x1="8" x2="126.8691" y1="195.89" y2="195.89"/><rect fill="#FFFFFF" fill-opacity="0.00000" height="6" style="stroke:#C82930;stroke-width:1;" width="6" x="15" y="206.5384"/><text fill="#000000" font-family="sans-serif" font-size="14" lengthAdjust="spacing" textLength="84.8613" x="27" y="212.8851">boolean _on</text><line style="stroke:#181818;stroke-width:0.5;" x1="8" x2="126.8691" y1="220.1869" y2="220.1869"/><ellipse cx="18" cy="233.8353" fill="#84BE84" rx="3" ry="3" style="stroke:#038048;stroke-width:1;"/><text fill="#000000" font-family="sans-serif" font-size="14" lengthAdjust="spacing" textLength="87.1445" x="27" y="237.182">void quack()</text><ellipse cx="18" cy="250.1322" fill="#84BE84" rx="3" ry="3" style="stroke:#038048;stroke-width:1;"/><text fill="#000000" font-family="sans-serif" font-size="14" lengthAdjust="spacing" textLength="81.2725" x="27" y="253.4789">void swim()</text><ellipse cx="18" cy="266.4291" fill="#84BE84" rx="3" ry="3" style="stroke:#038048;stroke-width:1;"/><text fill="#000000" font-family="sans-serif" font-size="14" lengthAdjust="spacing" textLength="93.8848" x="27" y="269.7757">void turnOn()</text><ellipse cx="18" cy="282.7259" fill="#84BE84" rx="3" ry="3" style="stroke:#038048;stroke-width:1;"/><text fill="#000000" font-family="sans-serif" font-size="14" lengthAdjust="spacing" textLength="94.8691" x="27" y="286.0726">void turnOff()</text></g><!--class Pool--><g id="elem_Pool"><rect codeLine="12" fill="#F1F1F1" height="96.8906" id="Pool" rx="2.5" ry="2.5" style="stroke:#181818;stroke-width:0.5;" width="211.3906" x="158.74" y="7"/><ellipse cx="245.4539" cy="23" fill="#ADD1B2" rx="11" ry="11" style="stroke:#181818;stroke-width:1;"/><path d="M248.4226,28.6406 Q247.8445,28.9375 247.2039,29.0781 Q246.5632,29.2344 245.8601,29.2344 Q243.3601,29.2344 242.032,27.5938 Q240.7195,25.9375 240.7195,22.8125 Q240.7195,19.6875 242.032,18.0313 Q243.3601,16.375 245.8601,16.375 Q246.5632,16.375 247.2039,16.5313 Q247.8601,16.6875 248.4226,16.9844 L248.4226,19.7031 Q247.7976,19.125 247.2039,18.8594 Q246.6101,18.5781 245.9851,18.5781 Q244.6414,18.5781 243.9539,19.6563 Q243.2664,20.7188 243.2664,22.8125 Q243.2664,24.9063 243.9539,25.9844 Q244.6414,27.0469 245.9851,27.0469 Q246.6101,27.0469 247.2039,26.7813 Q247.7976,26.5 248.4226,25.9219 L248.4226,28.6406 Z " fill="#000000"/><text fill="#000000" font-family="sans-serif" font-size="14" lengthAdjust="spacing" textLength="29.4629" x="265.9539" y="27.8467">Pool</text><line style="stroke:#181818;stroke-width:0.5;" x1="159.74" x2="369.1306" y1="39" y2="39"/><line style="stroke:#181818;stroke-width:0.5;" x1="159.74" x2="369.1306" y1="47" y2="47"/><ellipse cx="169.74" cy="60.6484" fill="#84BE84" rx="3" ry="3" style="stroke:#038048;stroke-width:1;"/><text fill="#000000" font-family="sans-serif" font-size="14" lengthAdjust="spacing" textLength="68.5029" x="178.74" y="63.9951">void run()</text><rect fill="#F24D5C" height="6" style="stroke:#C82930;stroke-width:1;" width="6" x="166.74" y="73.9453"/><text fill="#000000" font-family="sans-serif" font-size="14" lengthAdjust="spacing" textLength="185.3906" x="178.74" y="80.292">void quack(IDuck... ducks)</text><rect fill="#F24D5C" height="6" style="stroke:#C82930;stroke-width:1;" width="6" x="166.74" y="90.2422"/><text fill="#000000" font-family="sans-serif" font-size="14" lengthAdjust="spacing" textLength="179.5186" x="178.74" y="96.5889">void swim(IDuck... ducks)</text></g><!--class DuckFactory--><g id="elem_DuckFactory"><rect codeLine="17" fill="#F1F1F1" height="80.5938" id="DuckFactory" rx="2.5" ry="2.5" style="stroke:#181818;stroke-width:0.5;" width="208.7246" x="311.07" y="188.33"/><ellipse cx="367.2409" cy="204.33" fill="#ADD1B2" rx="11" ry="11" style="stroke:#181818;stroke-width:1;"/><path d="M370.2096,209.9706 Q369.6315,210.2675 368.9909,210.4081 Q368.3503,210.5644 367.6471,210.5644 Q365.1471,210.5644 363.819,208.9237 Q362.5065,207.2675 362.5065,204.1425 Q362.5065,201.0175 363.819,199.3612 Q365.1471,197.705 367.6471,197.705 Q368.3503,197.705 368.9909,197.8612 Q369.6471,198.0175 370.2096,198.3144 L370.2096,201.0331 Q369.5846,200.455 368.9909,200.1894 Q368.3971,199.9081 367.7721,199.9081 Q366.4284,199.9081 365.7409,200.9862 Q365.0534,202.0487 365.0534,204.1425 Q365.0534,206.2362 365.7409,207.3144 Q366.4284,208.3769 367.7721,208.3769 Q368.3971,208.3769 368.9909,208.1112 Q369.5846,207.83 370.2096,207.2519 L370.2096,209.9706 Z " fill="#000000"/><text fill="#000000" font-family="sans-serif" font-size="14" lengthAdjust="spacing" textLength="87.8828" x="387.7409" y="209.1767">DuckFactory</text><line style="stroke:#181818;stroke-width:0.5;" x1="312.07" x2="518.7946" y1="220.33" y2="220.33"/><line style="stroke:#181818;stroke-width:0.5;" x1="312.07" x2="518.7946" y1="228.33" y2="228.33"/><ellipse cx="322.07" cy="241.9784" fill="#84BE84" rx="3" ry="3" style="stroke:#038048;stroke-width:1;"/><text fill="#000000" font-family="sans-serif" font-size="14" lengthAdjust="spacing" textLength="164.3086" x="331.07" y="245.3251">IDuck getNormalDuck()</text><ellipse cx="322.07" cy="258.2753" fill="#84BE84" rx="3" ry="3" style="stroke:#038048;stroke-width:1;"/><text fill="#000000" font-family="sans-serif" font-size="14" lengthAdjust="spacing" textLength="182.7246" x="331.07" y="261.622">IDuck getElectronicDuck()</text></g><!--class IDuck--><g id="elem_IDuck"><rect codeLine="21" fill="#F1F1F1" height="80.5938" id="IDuck" rx="2.5" ry="2.5" style="stroke:#181818;stroke-width:0.5;" width="113.1445" x="10.86" y="15.14"/><ellipse cx="44.5609" cy="31.14" fill="#B4A7E5" rx="11" ry="11" style="stroke:#181818;stroke-width:1;"/><path d="M40.4828,26.9056 L40.4828,24.7494 L47.8734,24.7494 L47.8734,26.9056 L45.4047,26.9056 L45.4047,34.9837 L47.8734,34.9837 L47.8734,37.14 L40.4828,37.14 L40.4828,34.9837 L42.9516,34.9837 L42.9516,26.9056 L40.4828,26.9056 Z " fill="#000000"/><text fill="#000000" font-family="sans-serif" font-size="14" font-style="italic" lengthAdjust="spacing" textLength="39.5869" x="62.7167" y="35.9867">IDuck</text><line style="stroke:#181818;stroke-width:0.5;" x1="11.86" x2="123.0045" y1="47.14" y2="47.14"/><line style="stroke:#181818;stroke-width:0.5;" x1="11.86" x2="123.0045" y1="55.14" y2="55.14"/><ellipse cx="21.86" cy="68.7884" fill="#84BE84" rx="3" ry="3" style="stroke:#038048;stroke-width:1;"/><text fill="#000000" font-family="sans-serif" font-size="14" lengthAdjust="spacing" textLength="87.1445" x="30.86" y="72.1351">void quack()</text><ellipse cx="21.86" cy="85.0853" fill="#84BE84" rx="3" ry="3" style="stroke:#038048;stroke-width:1;"/><text fill="#000000" font-family="sans-serif" font-size="14" lengthAdjust="spacing" textLength="81.2725" x="30.86" y="88.432">void swim()</text></g><!--reverse link IDuck to ElectricDuck--><g id="link_IDuck_ElectricDuck"><path codeLine="25" d="M67.43,114.14 C67.43,134.19 67.43,141.02 67.43,163.67 " fill="#FFFFFF" fill-opacity="0.00000" id="IDuck-backto-ElectricDuck" style="stroke:#181818;stroke-width:1;stroke-dasharray:7.0,7.0;"/><polygon fill="#FFFFFF" fill-opacity="0.00000" points="67.43,96.14,61.43,114.14,73.43,114.14,67.43,96.14" style="stroke:#181818;stroke-width:1;"/></g><!--reverse link IDuck to Duck--><g id="link_IDuck_Duck"><path codeLine="26" d="M114.641,109.6001 C139.111,137.1601 159.62,160.27 184.11,187.84 " fill="#FFFFFF" fill-opacity="0.00000" id="IDuck-backto-Duck" style="stroke:#181818;stroke-width:1;stroke-dasharray:7.0,7.0;"/><polygon fill="#FFFFFF" fill-opacity="0.00000" points="102.69,96.14,110.1543,113.5838,119.1277,105.6164,102.69,96.14" style="stroke:#181818;stroke-width:1;"/></g><!--reverse link Pool to Duck--><g id="link_Pool_Duck"><path codeLine="27" d="M248.8502,115.736 C241.9102,142.146 236.43,162.99 229.85,188 " fill="#FFFFFF" fill-opacity="0.00000" id="Pool-backto-Duck" style="stroke:#181818;stroke-width:1;"/><polygon fill="#181818" points="251.9,104.13,246.5064,108.9164,248.8502,115.736,254.2438,110.9496,251.9,104.13" style="stroke:#181818;stroke-width:1;"/><text fill="#000000" font-family="sans-serif" font-size="13" lengthAdjust="spacing" textLength="8.271" x="222.8944" y="177.4073">1</text></g><!--reverse link Pool to ElectricDuck--><g id="link_Pool_ElectricDuck"><path codeLine="28" d="M200.2423,112.2213 C174.9723,134.1813 154,152.4 128.09,174.92 " fill="#FFFFFF" fill-opacity="0.00000" id="Pool-backto-ElectricDuck" style="stroke:#181818;stroke-width:1;"/><polygon fill="#181818" points="209.3,104.35,202.1474,105.2664,200.2423,112.2213,207.3949,111.3049,209.3,104.35" style="stroke:#181818;stroke-width:1;"/><text fill="#000000" font-family="sans-serif" font-size="13" lengthAdjust="spacing" textLength="8.271" x="135.9864" y="164.5348">1</text></g><!--link Pool to DuckFactory--><g id="link_Pool_DuckFactory"><path codeLine="29" d="M306.5,104.13 C329.8,130.54 354.451,158.4903 376.511,183.5003 " fill="#FFFFFF" fill-opacity="0.00000" id="Pool-to-DuckFactory" style="stroke:#181818;stroke-width:1;"/><polygon fill="#181818" points="380.48,188,377.5264,178.6045,377.1725,184.2502,371.5268,183.8964,380.48,188" style="stroke:#181818;stroke-width:1;"/></g><!--SRC=[bP3B3i8W44Nt_Of9Lpv24_V6ZO-a6_KF34wf8LA8G3L6- -zI-X0V2sL3ECFClNDHK6DWKUBn5e4xuxFY6PnAYiV1C23cmWi7gcZk6vQ2eTKSVsvy0bjgkP6VACzRHlPA2KObx9Ji1RUEXKAwx4QGG3Yj_IH90fcxJLZtDjxBLOJz-YkALkbhg-5_me7PjT855VMhSzoNcWoKR5BmuN1fcSufCaZ_YBIPEBqxOs6k8VVlEWCO4GBn9Fv2NdfzXP1PkDi3]--></g></svg>