<?xml version="1.0" encoding="UTF-8" standalone="no"?><svg xmlns="http://www.w3.org/2000/svg" xmlns:xlink="http://www.w3.org/1999/xlink" contentScriptType="application/ecmascript" contentStyleType="text/css" height="572px" preserveAspectRatio="none" style="width:1774px;height:572px;" version="1.1" viewBox="0 0 1774 572" width="1774px" zoomAndPan="magnify"><defs><filter height="300%" id="f1jxglchyrrljl" width="300%" x="-1" y="-1"><feGaussianBlur result="blurOut" stdDeviation="2.0"/><feColorMatrix in="blurOut" result="blurOut2" type="matrix" values="0 0 0 0 0 0 0 0 0 0 0 0 0 0 0 0 0 0 .4 0"/><feOffset dx="4.0" dy="4.0" in="blurOut2" result="blurOut3"/><feBlend in="SourceGraphic" in2="blurOut3" mode="normal"/></filter></defs><g><!--MD5=[334659cdb2db693f22bd23922003c2a4]
class ICarRepository--><rect fill="#FEFECE" filter="url(#f1jxglchyrrljl)" height="86.4141" id="ICarRepository" style="stroke: #A80036; stroke-width: 1.5;" width="319" x="732.5" y="450"/><ellipse cx="842.25" cy="466" fill="#B4A7E5" rx="11" ry="11" style="stroke: #A80036; stroke-width: 1.0;"/><path d="M838.1719,461.7656 L838.1719,459.6094 L845.5625,459.6094 L845.5625,461.7656 L843.0938,461.7656 L843.0938,469.8438 L845.5625,469.8438 L845.5625,472 L838.1719,472 L838.1719,469.8438 L840.6406,469.8438 L840.6406,461.7656 L838.1719,461.7656 Z "/><text fill="#000000" font-family="sans-serif" font-size="12" font-style="italic" lengthAdjust="spacingAndGlyphs" textLength="91" x="862.75" y="470.1543">ICarRepository</text><line style="stroke: #A80036; stroke-width: 1.5;" x1="733.5" x2="1050.5" y1="482" y2="482"/><line style="stroke: #A80036; stroke-width: 1.5;" x1="733.5" x2="1050.5" y1="490" y2="490"/><rect fill="#F24D5C" height="6" style="stroke: #C82930; stroke-width: 1.0;" width="6" x="740.5" y="498"/><text fill="#000000" font-family="sans-serif" font-size="11" lengthAdjust="spacingAndGlyphs" textLength="293" x="752.5" y="504.2104">void addToDb(String id, String model, String brand)</text><rect fill="#F24D5C" height="6" style="stroke: #C82930; stroke-width: 1.0;" width="6" x="740.5" y="510.8047"/><text fill="#000000" font-family="sans-serif" font-size="11" lengthAdjust="spacingAndGlyphs" textLength="160" x="752.5" y="517.0151">Car getFromDb(String carId)</text><rect fill="#F24D5C" height="6" style="stroke: #C82930; stroke-width: 1.0;" width="6" x="740.5" y="523.6094"/><text fill="#000000" font-family="sans-serif" font-size="11" lengthAdjust="spacingAndGlyphs" textLength="145" x="752.5" y="529.8198">List&lt;Car&gt; getAllFromDb()</text><!--MD5=[201dd6ae92d0eafc71453d7b9cf685f5]
class ICarService--><rect fill="#FEFECE" filter="url(#f1jxglchyrrljl)" height="86.4141" id="ICarService" style="stroke: #A80036; stroke-width: 1.5;" width="162" x="6" y="450"/><ellipse cx="48" cy="466" fill="#B4A7E5" rx="11" ry="11" style="stroke: #A80036; stroke-width: 1.0;"/><path d="M43.9219,461.7656 L43.9219,459.6094 L51.3125,459.6094 L51.3125,461.7656 L48.8438,461.7656 L48.8438,469.8438 L51.3125,469.8438 L51.3125,472 L43.9219,472 L43.9219,469.8438 L46.3906,469.8438 L46.3906,461.7656 L43.9219,461.7656 Z "/><text fill="#000000" font-family="sans-serif" font-size="12" font-style="italic" lengthAdjust="spacingAndGlyphs" textLength="70" x="68" y="470.1543">ICarService</text><line style="stroke: #A80036; stroke-width: 1.5;" x1="7" x2="167" y1="482" y2="482"/><line style="stroke: #A80036; stroke-width: 1.5;" x1="7" x2="167" y1="490" y2="490"/><rect fill="#F24D5C" height="6" style="stroke: #C82930; stroke-width: 1.0;" width="6" x="14" y="498"/><text fill="#000000" font-family="sans-serif" font-size="11" lengthAdjust="spacingAndGlyphs" textLength="136" x="26" y="504.2104">Car getCar(String carId)</text><rect fill="#F24D5C" height="6" style="stroke: #C82930; stroke-width: 1.0;" width="6" x="14" y="510.8047"/><text fill="#000000" font-family="sans-serif" font-size="11" lengthAdjust="spacingAndGlyphs" textLength="131" x="26" y="517.0151">String getCarsNames()</text><rect fill="#F24D5C" height="6" style="stroke: #C82930; stroke-width: 1.0;" width="6" x="14" y="523.6094"/><text fill="#000000" font-family="sans-serif" font-size="11" lengthAdjust="spacingAndGlyphs" textLength="96" x="26" y="529.8198">Car getBestCar()</text><!--MD5=[3b26d6491d96676ac3421db2a37adadc]
class ICarNamingService--><rect fill="#FEFECE" filter="url(#f1jxglchyrrljl)" height="60.8047" id="ICarNamingService" style="stroke: #A80036; stroke-width: 1.5;" width="157" x="254.5" y="462.5"/><ellipse cx="273.1" cy="478.5" fill="#B4A7E5" rx="11" ry="11" style="stroke: #A80036; stroke-width: 1.0;"/><path d="M269.0219,474.2656 L269.0219,472.1094 L276.4125,472.1094 L276.4125,474.2656 L273.9438,474.2656 L273.9438,482.3438 L276.4125,482.3438 L276.4125,484.5 L269.0219,484.5 L269.0219,482.3438 L271.4906,482.3438 L271.4906,474.2656 L269.0219,474.2656 Z "/><text fill="#000000" font-family="sans-serif" font-size="12" font-style="italic" lengthAdjust="spacingAndGlyphs" textLength="117" x="287.9" y="482.6543">ICarNamingService</text><line style="stroke: #A80036; stroke-width: 1.5;" x1="255.5" x2="410.5" y1="494.5" y2="494.5"/><line style="stroke: #A80036; stroke-width: 1.5;" x1="255.5" x2="410.5" y1="502.5" y2="502.5"/><rect fill="#F24D5C" height="6" style="stroke: #C82930; stroke-width: 1.0;" width="6" x="262.5" y="510.5"/><text fill="#000000" font-family="sans-serif" font-size="11" lengthAdjust="spacingAndGlyphs" textLength="131" x="274.5" y="516.7104">String getCarsNames()</text><!--MD5=[d31afebd65ae83cd5ef9389cbc02b515]
class ICarComparatorService--><rect fill="#FEFECE" filter="url(#f1jxglchyrrljl)" height="60.8047" id="ICarComparatorService" style="stroke: #A80036; stroke-width: 1.5;" width="176" x="468" y="462.5"/><ellipse cx="483" cy="478.5" fill="#B4A7E5" rx="11" ry="11" style="stroke: #A80036; stroke-width: 1.0;"/><path d="M478.9219,474.2656 L478.9219,472.1094 L486.3125,472.1094 L486.3125,474.2656 L483.8438,474.2656 L483.8438,482.3438 L486.3125,482.3438 L486.3125,484.5 L478.9219,484.5 L478.9219,482.3438 L481.3906,482.3438 L481.3906,474.2656 L478.9219,474.2656 Z "/><text fill="#000000" font-family="sans-serif" font-size="12" font-style="italic" lengthAdjust="spacingAndGlyphs" textLength="144" x="497" y="482.6543">ICarComparatorService</text><line style="stroke: #A80036; stroke-width: 1.5;" x1="469" x2="643" y1="494.5" y2="494.5"/><line style="stroke: #A80036; stroke-width: 1.5;" x1="469" x2="643" y1="502.5" y2="502.5"/><rect fill="#F24D5C" height="6" style="stroke: #C82930; stroke-width: 1.0;" width="6" x="476" y="510.5"/><text fill="#000000" font-family="sans-serif" font-size="11" lengthAdjust="spacingAndGlyphs" textLength="96" x="488" y="516.7104">Car getBestCar()</text><!--MD5=[3f0ef310aaa84a542276992c5216544d]
class Car--><rect fill="#FEFECE" filter="url(#f1jxglchyrrljl)" height="137.6328" id="Car" style="stroke: #A80036; stroke-width: 1.5;" width="262" x="1304" y="424"/><ellipse cx="1420.25" cy="440" fill="#ADD1B2" rx="11" ry="11" style="stroke: #A80036; stroke-width: 1.0;"/><path d="M1423.2188,445.6406 Q1422.6406,445.9375 1422,446.0781 Q1421.3594,446.2344 1420.6563,446.2344 Q1418.1563,446.2344 1416.8281,444.5938 Q1415.5156,442.9375 1415.5156,439.8125 Q1415.5156,436.6875 1416.8281,435.0313 Q1418.1563,433.375 1420.6563,433.375 Q1421.3594,433.375 1422,433.5313 Q1422.6563,433.6875 1423.2188,433.9844 L1423.2188,436.7031 Q1422.5938,436.125 1422,435.8594 Q1421.4063,435.5781 1420.7813,435.5781 Q1419.4375,435.5781 1418.75,436.6563 Q1418.0625,437.7188 1418.0625,439.8125 Q1418.0625,441.9063 1418.75,442.9844 Q1419.4375,444.0469 1420.7813,444.0469 Q1421.4063,444.0469 1422,443.7813 Q1422.5938,443.5 1423.2188,442.9219 L1423.2188,445.6406 Z "/><text fill="#000000" font-family="sans-serif" font-size="12" lengthAdjust="spacingAndGlyphs" textLength="21" x="1440.75" y="444.1543">Car</text><line style="stroke: #A80036; stroke-width: 1.5;" x1="1305" x2="1565" y1="456" y2="456"/><rect fill="none" height="6" style="stroke: #C82930; stroke-width: 1.0;" width="6" x="1312" y="464"/><text fill="#000000" font-family="sans-serif" font-size="11" lengthAdjust="spacingAndGlyphs" textLength="82" x="1324" y="470.2104">final String _id</text><rect fill="none" height="6" style="stroke: #C82930; stroke-width: 1.0;" width="6" x="1312" y="476.8047"/><text fill="#000000" font-family="sans-serif" font-size="11" lengthAdjust="spacingAndGlyphs" textLength="107" x="1324" y="483.0151">final String _model</text><rect fill="none" height="6" style="stroke: #C82930; stroke-width: 1.0;" width="6" x="1312" y="489.6094"/><text fill="#000000" font-family="sans-serif" font-size="11" lengthAdjust="spacingAndGlyphs" textLength="105" x="1324" y="495.8198">final String _brand</text><line style="stroke: #A80036; stroke-width: 1.5;" x1="1305" x2="1565" y1="502.4141" y2="502.4141"/><rect fill="#F24D5C" height="6" style="stroke: #C82930; stroke-width: 1.0;" width="6" x="1312" y="510.4141"/><text fill="#000000" font-family="sans-serif" font-size="11" lengthAdjust="spacingAndGlyphs" textLength="236" x="1324" y="516.6245">Car(String id, String model, String brand)</text><rect fill="#F24D5C" height="6" style="stroke: #C82930; stroke-width: 1.0;" width="6" x="1312" y="523.2188"/><text fill="#000000" font-family="sans-serif" font-size="11" lengthAdjust="spacingAndGlyphs" textLength="74" x="1324" y="529.4292">String getId()</text><rect fill="#F24D5C" height="6" style="stroke: #C82930; stroke-width: 1.0;" width="6" x="1312" y="536.0234"/><text fill="#000000" font-family="sans-serif" font-size="11" lengthAdjust="spacingAndGlyphs" textLength="97" x="1324" y="542.2339">String getModel()</text><rect fill="#F24D5C" height="6" style="stroke: #C82930; stroke-width: 1.0;" width="6" x="1312" y="548.8281"/><text fill="#000000" font-family="sans-serif" font-size="11" lengthAdjust="spacingAndGlyphs" textLength="98" x="1324" y="555.0386">String getBrand()</text><!--MD5=[638b1e3a5367ac5a67c3eec5cbc4b6c0]
class CarManager--><rect fill="#FEFECE" filter="url(#f1jxglchyrrljl)" height="112.0234" id="CarManager" style="stroke: #A80036; stroke-width: 1.5;" width="191" x="803.5" y="8"/><ellipse cx="856.75" cy="24" fill="#ADD1B2" rx="11" ry="11" style="stroke: #A80036; stroke-width: 1.0;"/><path d="M859.7188,29.6406 Q859.1406,29.9375 858.5,30.0781 Q857.8594,30.2344 857.1563,30.2344 Q854.6563,30.2344 853.3281,28.5938 Q852.0156,26.9375 852.0156,23.8125 Q852.0156,20.6875 853.3281,19.0313 Q854.6563,17.375 857.1563,17.375 Q857.8594,17.375 858.5,17.5313 Q859.1563,17.6875 859.7188,17.9844 L859.7188,20.7031 Q859.0938,20.125 858.5,19.8594 Q857.9063,19.5781 857.2813,19.5781 Q855.9375,19.5781 855.25,20.6563 Q854.5625,21.7188 854.5625,23.8125 Q854.5625,25.9063 855.25,26.9844 Q855.9375,28.0469 857.2813,28.0469 Q857.9063,28.0469 858.5,27.7813 Q859.0938,27.5 859.7188,26.9219 L859.7188,29.6406 Z "/><text fill="#000000" font-family="sans-serif" font-size="12" lengthAdjust="spacingAndGlyphs" textLength="76" x="877.25" y="28.1543">CarManager</text><line style="stroke: #A80036; stroke-width: 1.5;" x1="804.5" x2="993.5" y1="40" y2="40"/><rect fill="none" height="6" style="stroke: #C82930; stroke-width: 1.0;" width="6" x="811.5" y="48"/><text fill="#000000" font-family="sans-serif" font-size="11" lengthAdjust="spacingAndGlyphs" textLength="165" x="823.5" y="54.2104">final ICarService _CarService</text><line style="stroke: #A80036; stroke-width: 1.5;" x1="804.5" x2="993.5" y1="60.8047" y2="60.8047"/><rect fill="#F24D5C" height="6" style="stroke: #C82930; stroke-width: 1.0;" width="6" x="811.5" y="68.8047"/><text fill="#000000" font-family="sans-serif" font-size="11" lengthAdjust="spacingAndGlyphs" textLength="77" x="823.5" y="75.0151">CarManager()</text><rect fill="#F24D5C" height="6" style="stroke: #C82930; stroke-width: 1.0;" width="6" x="811.5" y="81.6094"/><text fill="#000000" font-family="sans-serif" font-size="11" lengthAdjust="spacingAndGlyphs" textLength="136" x="823.5" y="87.8198">Car getCar(String carId)</text><rect fill="#F24D5C" height="6" style="stroke: #C82930; stroke-width: 1.0;" width="6" x="811.5" y="94.4141"/><text fill="#000000" font-family="sans-serif" font-size="11" lengthAdjust="spacingAndGlyphs" textLength="131" x="823.5" y="100.6245">String getCarsNames()</text><rect fill="#F24D5C" height="6" style="stroke: #C82930; stroke-width: 1.0;" width="6" x="811.5" y="107.2188"/><text fill="#000000" font-family="sans-serif" font-size="11" lengthAdjust="spacingAndGlyphs" textLength="96" x="823.5" y="113.4292">Car getBestCar()</text><!--MD5=[f1f7511de20c5d4c2983d5f8d0b1d578]
class CarRepository--><rect fill="#FEFECE" filter="url(#f1jxglchyrrljl)" height="150.4375" id="CarRepository" style="stroke: #A80036; stroke-width: 1.5;" width="319" x="1275.5" y="197"/><ellipse cx="1387.25" cy="213" fill="#ADD1B2" rx="11" ry="11" style="stroke: #A80036; stroke-width: 1.0;"/><path d="M1390.2188,218.6406 Q1389.6406,218.9375 1389,219.0781 Q1388.3594,219.2344 1387.6563,219.2344 Q1385.1563,219.2344 1383.8281,217.5938 Q1382.5156,215.9375 1382.5156,212.8125 Q1382.5156,209.6875 1383.8281,208.0313 Q1385.1563,206.375 1387.6563,206.375 Q1388.3594,206.375 1389,206.5313 Q1389.6563,206.6875 1390.2188,206.9844 L1390.2188,209.7031 Q1389.5938,209.125 1389,208.8594 Q1388.4063,208.5781 1387.7813,208.5781 Q1386.4375,208.5781 1385.75,209.6563 Q1385.0625,210.7188 1385.0625,212.8125 Q1385.0625,214.9063 1385.75,215.9844 Q1386.4375,217.0469 1387.7813,217.0469 Q1388.4063,217.0469 1389,216.7813 Q1389.5938,216.5 1390.2188,215.9219 L1390.2188,218.6406 Z "/><text fill="#000000" font-family="sans-serif" font-size="12" lengthAdjust="spacingAndGlyphs" textLength="87" x="1407.75" y="217.1543">CarRepository</text><line style="stroke: #A80036; stroke-width: 1.5;" x1="1276.5" x2="1593.5" y1="229" y2="229"/><rect fill="none" height="6" style="stroke: #C82930; stroke-width: 1.0;" width="6" x="1283.5" y="237"/><text fill="#000000" font-family="sans-serif" font-size="11" lengthAdjust="spacingAndGlyphs" textLength="108" x="1295.5" y="243.2104">List&lt;Car&gt; _carsDb</text><rect fill="none" height="6" style="stroke: #C82930; stroke-width: 1.0;" width="6" x="1283.5" y="249.8047"/><text fill="#000000" font-family="sans-serif" font-size="11" lengthAdjust="spacingAndGlyphs" textLength="173" x="1295.5" y="256.0151">static CarRepository _instance</text><line style="stroke: #A80036; stroke-width: 1.5;" x1="1276.5" x2="1593.5" y1="262.6094" y2="262.6094"/><rect fill="#F24D5C" height="6" style="stroke: #C82930; stroke-width: 1.0;" width="6" x="1283.5" y="270.6094"/><text fill="#000000" font-family="sans-serif" font-size="11" lengthAdjust="spacingAndGlyphs" textLength="88" x="1295.5" y="276.8198">CarRepository()</text><text fill="#000000" font-family="sans-serif" font-size="11" lengthAdjust="spacingAndGlyphs" textLength="0" x="1299.5" y="289.6245"/><rect fill="#F24D5C" height="6" style="stroke: #C82930; stroke-width: 1.0;" width="6" x="1283.5" y="296.2188"/><text fill="#000000" font-family="sans-serif" font-size="11" lengthAdjust="spacingAndGlyphs" textLength="193" x="1295.5" y="302.4292">static CarRepository getInstance()</text><rect fill="#F24D5C" height="6" style="stroke: #C82930; stroke-width: 1.0;" width="6" x="1283.5" y="309.0234"/><text fill="#000000" font-family="sans-serif" font-size="11" lengthAdjust="spacingAndGlyphs" textLength="293" x="1295.5" y="315.2339">void addToDb(String id, String model, String brand)</text><rect fill="#F24D5C" height="6" style="stroke: #C82930; stroke-width: 1.0;" width="6" x="1283.5" y="321.8281"/><text fill="#000000" font-family="sans-serif" font-size="11" lengthAdjust="spacingAndGlyphs" textLength="160" x="1295.5" y="328.0386">Car getFromDb(String carId)</text><rect fill="#F24D5C" height="6" style="stroke: #C82930; stroke-width: 1.0;" width="6" x="1283.5" y="334.6328"/><text fill="#000000" font-family="sans-serif" font-size="11" lengthAdjust="spacingAndGlyphs" textLength="145" x="1295.5" y="340.8433">List&lt;Car&gt; getAllFromDb()</text><!--MD5=[17d20a1595e6d2fd84342931c17ea8a2]
class CarService--><rect fill="#FEFECE" filter="url(#f1jxglchyrrljl)" height="137.6328" id="CarService" style="stroke: #A80036; stroke-width: 1.5;" width="436" x="101" y="203"/><ellipse cx="281.75" cy="219" fill="#ADD1B2" rx="11" ry="11" style="stroke: #A80036; stroke-width: 1.0;"/><path d="M284.7188,224.6406 Q284.1406,224.9375 283.5,225.0781 Q282.8594,225.2344 282.1563,225.2344 Q279.6563,225.2344 278.3281,223.5938 Q277.0156,221.9375 277.0156,218.8125 Q277.0156,215.6875 278.3281,214.0313 Q279.6563,212.375 282.1563,212.375 Q282.8594,212.375 283.5,212.5313 Q284.1563,212.6875 284.7188,212.9844 L284.7188,215.7031 Q284.0938,215.125 283.5,214.8594 Q282.9063,214.5781 282.2813,214.5781 Q280.9375,214.5781 280.25,215.6563 Q279.5625,216.7188 279.5625,218.8125 Q279.5625,220.9063 280.25,221.9844 Q280.9375,223.0469 282.2813,223.0469 Q282.9063,223.0469 283.5,222.7813 Q284.0938,222.5 284.7188,221.9219 L284.7188,224.6406 Z "/><text fill="#000000" font-family="sans-serif" font-size="12" lengthAdjust="spacingAndGlyphs" textLength="66" x="302.25" y="223.1543">CarService</text><line style="stroke: #A80036; stroke-width: 1.5;" x1="102" x2="536" y1="235" y2="235"/><rect fill="none" height="6" style="stroke: #C82930; stroke-width: 1.0;" width="6" x="109" y="243"/><text fill="#000000" font-family="sans-serif" font-size="11" lengthAdjust="spacingAndGlyphs" textLength="199" x="121" y="249.2104">final ICarRepository _carRepository</text><rect fill="none" height="6" style="stroke: #C82930; stroke-width: 1.0;" width="6" x="109" y="255.8047"/><text fill="#000000" font-family="sans-serif" font-size="11" lengthAdjust="spacingAndGlyphs" textLength="249" x="121" y="262.0151">final ICarNamingService _carNamingService</text><rect fill="none" height="6" style="stroke: #C82930; stroke-width: 1.0;" width="6" x="109" y="268.6094"/><text fill="#000000" font-family="sans-serif" font-size="11" lengthAdjust="spacingAndGlyphs" textLength="299" x="121" y="274.8198">final ICarComparatorService _carComparatorService</text><line style="stroke: #A80036; stroke-width: 1.5;" x1="102" x2="536" y1="281.4141" y2="281.4141"/><rect fill="#F24D5C" height="6" style="stroke: #C82930; stroke-width: 1.0;" width="6" x="109" y="289.4141"/><text fill="#000000" font-family="sans-serif" font-size="11" lengthAdjust="spacingAndGlyphs" textLength="410" x="121" y="295.6245">CarService(ICarRepository, ICarNamingService, ICarComparatorService)</text><rect fill="#F24D5C" height="6" style="stroke: #C82930; stroke-width: 1.0;" width="6" x="109" y="302.2188"/><text fill="#000000" font-family="sans-serif" font-size="11" lengthAdjust="spacingAndGlyphs" textLength="136" x="121" y="308.4292">Car getCar(String carId)</text><rect fill="#F24D5C" height="6" style="stroke: #C82930; stroke-width: 1.0;" width="6" x="109" y="315.0234"/><text fill="#000000" font-family="sans-serif" font-size="11" lengthAdjust="spacingAndGlyphs" textLength="131" x="121" y="321.2339">String getCarsNames()</text><rect fill="#F24D5C" height="6" style="stroke: #C82930; stroke-width: 1.0;" width="6" x="109" y="327.8281"/><text fill="#000000" font-family="sans-serif" font-size="11" lengthAdjust="spacingAndGlyphs" textLength="96" x="121" y="334.0386">Car getBestCar()</text><!--MD5=[a969f4237c263eeaed6606719e0a27c3]
class CarNamingService--><rect fill="#FEFECE" filter="url(#f1jxglchyrrljl)" height="86.4141" id="CarNamingService" style="stroke: #A80036; stroke-width: 1.5;" width="304" x="572" y="229"/><ellipse cx="663.25" cy="245" fill="#ADD1B2" rx="11" ry="11" style="stroke: #A80036; stroke-width: 1.0;"/><path d="M666.2188,250.6406 Q665.6406,250.9375 665,251.0781 Q664.3594,251.2344 663.6563,251.2344 Q661.1563,251.2344 659.8281,249.5938 Q658.5156,247.9375 658.5156,244.8125 Q658.5156,241.6875 659.8281,240.0313 Q661.1563,238.375 663.6563,238.375 Q664.3594,238.375 665,238.5313 Q665.6563,238.6875 666.2188,238.9844 L666.2188,241.7031 Q665.5938,241.125 665,240.8594 Q664.4063,240.5781 663.7813,240.5781 Q662.4375,240.5781 661.75,241.6563 Q661.0625,242.7188 661.0625,244.8125 Q661.0625,246.9063 661.75,247.9844 Q662.4375,249.0469 663.7813,249.0469 Q664.4063,249.0469 665,248.7813 Q665.5938,248.5 666.2188,247.9219 L666.2188,250.6406 Z "/><text fill="#000000" font-family="sans-serif" font-size="12" lengthAdjust="spacingAndGlyphs" textLength="113" x="683.75" y="249.1543">CarNamingService</text><line style="stroke: #A80036; stroke-width: 1.5;" x1="573" x2="875" y1="261" y2="261"/><rect fill="none" height="6" style="stroke: #C82930; stroke-width: 1.0;" width="6" x="580" y="269"/><text fill="#000000" font-family="sans-serif" font-size="11" lengthAdjust="spacingAndGlyphs" textLength="199" x="592" y="275.2104">final ICarRepository _carRepository</text><line style="stroke: #A80036; stroke-width: 1.5;" x1="573" x2="875" y1="281.8047" y2="281.8047"/><rect fill="#F24D5C" height="6" style="stroke: #C82930; stroke-width: 1.0;" width="6" x="580" y="289.8047"/><text fill="#000000" font-family="sans-serif" font-size="11" lengthAdjust="spacingAndGlyphs" textLength="278" x="592" y="296.0151">CarNamingService(ICarRepository carRepository)</text><rect fill="#F24D5C" height="6" style="stroke: #C82930; stroke-width: 1.0;" width="6" x="580" y="302.6094"/><text fill="#000000" font-family="sans-serif" font-size="11" lengthAdjust="spacingAndGlyphs" textLength="131" x="592" y="308.8198">String getCarsNames()</text><!--MD5=[73887d7d82640305630d4175486fe430]
class CarComparatorService--><rect fill="#FEFECE" filter="url(#f1jxglchyrrljl)" height="86.4141" id="CarComparatorService" style="stroke: #A80036; stroke-width: 1.5;" width="329" x="911.5" y="229"/><ellipse cx="1001.75" cy="245" fill="#ADD1B2" rx="11" ry="11" style="stroke: #A80036; stroke-width: 1.0;"/><path d="M1004.7188,250.6406 Q1004.1406,250.9375 1003.5,251.0781 Q1002.8594,251.2344 1002.1563,251.2344 Q999.6563,251.2344 998.3281,249.5938 Q997.0156,247.9375 997.0156,244.8125 Q997.0156,241.6875 998.3281,240.0313 Q999.6563,238.375 1002.1563,238.375 Q1002.8594,238.375 1003.5,238.5313 Q1004.1563,238.6875 1004.7188,238.9844 L1004.7188,241.7031 Q1004.0938,241.125 1003.5,240.8594 Q1002.9063,240.5781 1002.2813,240.5781 Q1000.9375,240.5781 1000.25,241.6563 Q999.5625,242.7188 999.5625,244.8125 Q999.5625,246.9063 1000.25,247.9844 Q1000.9375,249.0469 1002.2813,249.0469 Q1002.9063,249.0469 1003.5,248.7813 Q1004.0938,248.5 1004.7188,247.9219 L1004.7188,250.6406 Z "/><text fill="#000000" font-family="sans-serif" font-size="12" lengthAdjust="spacingAndGlyphs" textLength="140" x="1022.25" y="249.1543">CarComparatorService</text><line style="stroke: #A80036; stroke-width: 1.5;" x1="912.5" x2="1239.5" y1="261" y2="261"/><rect fill="none" height="6" style="stroke: #C82930; stroke-width: 1.0;" width="6" x="919.5" y="269"/><text fill="#000000" font-family="sans-serif" font-size="11" lengthAdjust="spacingAndGlyphs" textLength="199" x="931.5" y="275.2104">final ICarRepository _carRepository</text><line style="stroke: #A80036; stroke-width: 1.5;" x1="912.5" x2="1239.5" y1="281.8047" y2="281.8047"/><rect fill="#F24D5C" height="6" style="stroke: #C82930; stroke-width: 1.0;" width="6" x="919.5" y="289.8047"/><text fill="#000000" font-family="sans-serif" font-size="11" lengthAdjust="spacingAndGlyphs" textLength="303" x="931.5" y="296.0151">CarComparatorService(ICarRepository carRepository)</text><rect fill="#F24D5C" height="6" style="stroke: #C82930; stroke-width: 1.0;" width="6" x="919.5" y="302.6094"/><text fill="#000000" font-family="sans-serif" font-size="11" lengthAdjust="spacingAndGlyphs" textLength="96" x="931.5" y="308.8198">Car getBestCar()</text><path d="M1630,259.5 L1630,268 L1594.56,272 L1630,276 L1630,284.6328 A0,0 0 0 0 1630,284.6328 L1762,284.6328 A0,0 0 0 0 1762,284.6328 L1762,269.5 L1752,259.5 L1630,259.5 A0,0 0 0 0 1630,259.5 " fill="#FBFB77" filter="url(#f1jxglchyrrljl)" style="stroke: #A80036; stroke-width: 1.0;"/><path d="M1752,259.5 L1752,269.5 L1762,269.5 L1752,259.5 " fill="#FBFB77" style="stroke: #A80036; stroke-width: 1.0;"/><text fill="#000000" font-family="sans-serif" font-size="13" lengthAdjust="spacingAndGlyphs" textLength="111" x="1636" y="276.5669">Singleton pattern</text><!--MD5=[5531492bc3bbd060646d8e61698b6b13]
link CarRepository to ICarRepository--><path d="M1275.38,339.9 C1269.51,342.3 1263.71,344.68 1258,347 C1178.7,379.28 1089.38,414.69 1018.82,442.43 " fill="none" id="CarRepository-&gt;ICarRepository" style="stroke: #A80036; stroke-width: 1.0; stroke-dasharray: 7.0,7.0;"/><polygon fill="none" points="1021.09,449.06,999.91,449.86,1015.97,436.03,1021.09,449.06" style="stroke: #A80036; stroke-width: 1.0;"/><!--MD5=[7cd7c0f6dfd2a6e4ccdd4b60dc42f5b5]
reverse link CarRepository to Car--><path d="M1447,360.34 C1447.57,371.66 1447.67,383.1 1447,394 C1446.41,403.67 1445.5,413.84 1444.43,423.83 " fill="none" id="CarRepository&lt;-Car" style="stroke: #A80036; stroke-width: 1.0;"/><polygon fill="#A80036" points="1446.12,347.16,1442.5243,353.4107,1446.9112,359.1339,1450.5069,352.8832,1446.12,347.16" style="stroke: #A80036; stroke-width: 1.0;"/><text fill="#000000" font-family="sans-serif" font-size="13" lengthAdjust="spacingAndGlyphs" textLength="54" x="1449" y="390.0669">contains</text><polygon fill="#000000" points="1471.5,399.1328,1474.5,405.1328,1477.5,399.1328,1471.5,399.1328" style="stroke: #000000; stroke-width: 1.0;"/><text fill="#000000" font-family="sans-serif" font-size="13" lengthAdjust="spacingAndGlyphs" textLength="8" x="1438.8542" y="367.7355">1</text><text fill="#000000" font-family="sans-serif" font-size="13" lengthAdjust="spacingAndGlyphs" textLength="36" x="1407.5462" y="413.0161">many</text><!--MD5=[495abe0c45bfbaf854110b60062dd5da]
link CarRepository to Car--><path d="M1379.76,347.17 C1374.01,362.28 1371.65,378.35 1376,394 C1378.38,402.56 1381.72,411.11 1385.63,419.41 " fill="none" id="CarRepository-&gt;Car" style="stroke: #A80036; stroke-width: 1.0; stroke-dasharray: 7.0,7.0;"/><polygon fill="#A80036" points="1387.85,423.99,1387.5036,414.1472,1385.6599,419.4952,1380.3119,417.6515,1387.85,423.99" style="stroke: #A80036; stroke-width: 1.0;"/><text fill="#000000" font-family="sans-serif" font-size="13" lengthAdjust="spacingAndGlyphs" textLength="48" x="1377" y="390.0669">creates</text><polygon fill="#000000" points="1396.5,399.1328,1399.5,405.1328,1402.5,399.1328,1396.5,399.1328" style="stroke: #000000; stroke-width: 1.0;"/><!--MD5=[811257d234f1a030b6e75bf2c0ef0707]
link CarService to ICarService--><path d="M246.87,341.09 C214.66,371.49 177.17,406.88 146.59,435.75 " fill="none" id="CarService-&gt;ICarService" style="stroke: #A80036; stroke-width: 1.0; stroke-dasharray: 7.0,7.0;"/><polygon fill="none" points="151.09,441.13,131.74,449.76,141.48,430.95,151.09,441.13" style="stroke: #A80036; stroke-width: 1.0;"/><!--MD5=[caf76989b287c7f509dfd83646fd9a39]
link CarService to ICarRepository--><path d="M497.16,341.09 C588.48,375.99 697.02,417.48 777.16,448.11 " fill="none" id="CarService-&gt;ICarRepository" style="stroke: #A80036; stroke-width: 1.0;"/><polygon fill="#A80036" points="781.92,449.93,774.9415,442.9801,777.2496,448.1447,772.085,450.4527,781.92,449.93" style="stroke: #A80036; stroke-width: 1.0;"/><text fill="#000000" font-family="sans-serif" font-size="13" lengthAdjust="spacingAndGlyphs" textLength="30" x="624" y="390.0669">uses</text><polygon fill="#000000" points="657,384.0664,663,387.0664,657,390.0664,657,384.0664" style="stroke: #000000; stroke-width: 1.0;"/><!--MD5=[996c27630f79a180aaa294937f5c0ba0]
link CarService to ICarNamingService--><path d="M323.35,341.09 C325.81,379.55 328.78,426 330.77,457.12 " fill="none" id="CarService-&gt;ICarNamingService" style="stroke: #A80036; stroke-width: 1.0;"/><polygon fill="#A80036" points="331.11,462.36,334.5359,453.1262,330.7954,457.3699,326.5517,453.6295,331.11,462.36" style="stroke: #A80036; stroke-width: 1.0;"/><text fill="#000000" font-family="sans-serif" font-size="13" lengthAdjust="spacingAndGlyphs" textLength="30" x="328" y="390.0669">uses</text><polygon fill="#000000" points="338.5,399.1328,341.5,405.1328,344.5,399.1328,338.5,399.1328" style="stroke: #000000; stroke-width: 1.0;"/><!--MD5=[450077303f4c3d6ec44167046e7d1e66]
link CarService to ICarComparatorService--><path d="M392.69,341.09 C435,380.19 486.24,427.54 519.9,458.65 " fill="none" id="CarService-&gt;ICarComparatorService" style="stroke: #A80036; stroke-width: 1.0;"/><polygon fill="#A80036" points="523.92,462.36,520.0345,453.31,520.2515,458.9627,514.5988,459.1796,523.92,462.36" style="stroke: #A80036; stroke-width: 1.0;"/><text fill="#000000" font-family="sans-serif" font-size="13" lengthAdjust="spacingAndGlyphs" textLength="30" x="446" y="390.0669">uses</text><polygon fill="#000000" points="479,384.0664,485,387.0664,479,390.0664,479,384.0664" style="stroke: #000000; stroke-width: 1.0;"/><!--MD5=[1779b605dba1228ee40f957d2561a26b]
link CarNamingService to ICarNamingService--><path d="M633.64,315.17 C608.17,326.27 580.25,337.73 554,347 C506.62,363.74 488.26,351.44 445,377 C414.88,394.79 387.37,422.79 367.15,446.7 " fill="none" id="CarNamingService-&gt;ICarNamingService" style="stroke: #A80036; stroke-width: 1.0; stroke-dasharray: 7.0,7.0;"/><polygon fill="none" points="372.42,451.32,354.37,462.43,361.55,442.49,372.42,451.32" style="stroke: #A80036; stroke-width: 1.0;"/><!--MD5=[666cc84573a47556dde09785eb5c5540]
link CarNamingService to ICarRepository--><path d="M756.39,315.23 C785.1,352.64 826.92,407.17 856.52,445.75 " fill="none" id="CarNamingService-&gt;ICarRepository" style="stroke: #A80036; stroke-width: 1.0;"/><polygon fill="#A80036" points="859.71,449.9,857.3948,440.3271,856.6621,445.9363,851.0529,445.2037,859.71,449.9" style="stroke: #A80036; stroke-width: 1.0;"/><text fill="#000000" font-family="sans-serif" font-size="13" lengthAdjust="spacingAndGlyphs" textLength="30" x="815" y="390.0669">uses</text><polygon fill="#000000" points="825.5,399.1328,828.5,405.1328,831.5,399.1328,825.5,399.1328" style="stroke: #000000; stroke-width: 1.0;"/><!--MD5=[3d2b74082010f741119a3bcfdddf997c]
link CarComparatorService to ICarComparatorService--><path d="M985.96,315.12 C956.85,327.17 924.07,339.16 893,347 C834.25,361.83 672.68,343.79 622,377 C598.34,392.5 582.19,419.62 571.79,443.63 " fill="none" id="CarComparatorService-&gt;ICarComparatorService" style="stroke: #A80036; stroke-width: 1.0; stroke-dasharray: 7.0,7.0;"/><polygon fill="none" points="578.28,446.24,564.5,462.33,565.24,441.16,578.28,446.24" style="stroke: #A80036; stroke-width: 1.0;"/><!--MD5=[b0fdb73352250591b9aa4942209b2f64]
link CarComparatorService to ICarRepository--><path d="M1040.52,315.23 C1009.09,352.64 963.27,407.17 930.86,445.75 " fill="none" id="CarComparatorService-&gt;ICarRepository" style="stroke: #A80036; stroke-width: 1.0;"/><polygon fill="#A80036" points="927.37,449.9,936.2204,445.5791,930.585,446.0706,930.0934,440.4352,927.37,449.9" style="stroke: #A80036; stroke-width: 1.0;"/><text fill="#000000" font-family="sans-serif" font-size="13" lengthAdjust="spacingAndGlyphs" textLength="30" x="985" y="390.0669">uses</text><polygon fill="#000000" points="995.5,399.1328,998.5,405.1328,1001.5,399.1328,995.5,399.1328" style="stroke: #000000; stroke-width: 1.0;"/><!--MD5=[a10ebbba148e96eafebfb2a3332e26a3]
link CarManager to ICarService--><path d="M803.38,64.75 C600.16,66.46 135.82,83.04 38,197 C-21.94,266.82 24.61,381.38 58.92,445.25 " fill="none" id="CarManager-&gt;ICarService" style="stroke: #A80036; stroke-width: 1.0;"/><polygon fill="#A80036" points="61.37,449.76,60.5965,439.9416,58.9867,445.3645,53.5638,443.7548,61.37,449.76" style="stroke: #A80036; stroke-width: 1.0;"/><polygon fill="#000000" points="46,270.5664,40,273.5664,46,276.5664,46,270.5664" style="stroke: #000000; stroke-width: 1.0;"/><text fill="#000000" font-family="sans-serif" font-size="13" lengthAdjust="spacingAndGlyphs" textLength="30" x="52" y="276.5669">uses</text><!--MD5=[e488997cd50ee756f1e458aa2c14d93b]
link CarManager to CarRepository--><path d="M994.67,98.89 C1067.24,124.91 1169.3,162.17 1258,197 C1262.21,198.65 1266.48,200.34 1270.77,202.05 " fill="none" id="CarManager-&gt;CarRepository" style="stroke: #A80036; stroke-width: 1.0; stroke-dasharray: 7.0,7.0;"/><polygon fill="#A80036" points="1275.45,203.92,1268.5606,196.8818,1270.8027,202.0754,1265.6092,204.3175,1275.45,203.92" style="stroke: #A80036; stroke-width: 1.0;"/><text fill="#000000" font-family="sans-serif" font-size="13" lengthAdjust="spacingAndGlyphs" textLength="75" x="1181" y="163.0669">instantiates</text><polygon fill="#000000" points="1259,157.0664,1265,160.0664,1259,163.0664,1259,157.0664" style="stroke: #000000; stroke-width: 1.0;"/><!--MD5=[69ba30e71dce20b890c12b6eed8c1716]
link CarManager to CarNamingService--><path d="M852.1,120.2 C824.39,152.82 789.7,193.66 763.41,224.61 " fill="none" id="CarManager-&gt;CarNamingService" style="stroke: #A80036; stroke-width: 1.0; stroke-dasharray: 7.0,7.0;"/><polygon fill="#A80036" points="759.92,228.72,768.7971,224.4541,763.1587,224.9107,762.7021,219.2723,759.92,228.72" style="stroke: #A80036; stroke-width: 1.0;"/><text fill="#000000" font-family="sans-serif" font-size="13" lengthAdjust="spacingAndGlyphs" textLength="75" x="823" y="163.0669">instantiates</text><polygon fill="#000000" points="856,172.1328,859,178.1328,862,172.1328,856,172.1328" style="stroke: #000000; stroke-width: 1.0;"/><!--MD5=[65d4e317d93e8842362d1231f3d20f5a]
link CarManager to CarComparatorService--><path d="M946.43,120.2 C974.46,152.82 1009.55,193.66 1036.14,224.61 " fill="none" id="CarManager-&gt;CarComparatorService" style="stroke: #A80036; stroke-width: 1.0; stroke-dasharray: 7.0,7.0;"/><polygon fill="#A80036" points="1039.67,228.72,1036.8499,219.2835,1036.416,224.9237,1030.7759,224.4899,1039.67,228.72" style="stroke: #A80036; stroke-width: 1.0;"/><text fill="#000000" font-family="sans-serif" font-size="13" lengthAdjust="spacingAndGlyphs" textLength="75" x="984" y="163.0669">instantiates</text><polygon fill="#000000" points="1017,172.1328,1020,178.1328,1023,172.1328,1017,172.1328" style="stroke: #000000; stroke-width: 1.0;"/><!--MD5=[4cdd26d39a779bdb742367a728c3a688]
@startuml newSRPDiagram

interface ICarRepository {

- void addToDb(String id, String model, String brand)
- Car getFromDb(String carId)
- List<Car> getAllFromDb()
}

interface ICarService {

- Car getCar(String carId)
- String getCarsNames()
- Car getBestCar()
}

interface ICarNamingService {

- String getCarsNames()
}

interface ICarComparatorService {

- Car getBestCar()
}

class Car {

- final String _id
- final String _model
- final String _brand

- Car(String id, String model, String brand)
- String getId()
- String getModel()
- String getBrand()
}

class CarManager {

- final ICarService _CarService

- CarManager()
- Car getCar(String carId)
- String getCarsNames()
- Car getBestCar()
}

class CarRepository {

- List<Car> _carsDb
- static CarRepository _instance
- CarRepository()

- static CarRepository getInstance()
- void addToDb(String id, String model, String brand)
- Car getFromDb(String carId)
- List<Car> getAllFromDb()
}

class CarService {

- final ICarRepository _carRepository
- final ICarNamingService _carNamingService
- final ICarComparatorService _carComparatorService

- CarService(ICarRepository, ICarNamingService, ICarComparatorService)
- Car getCar(String carId)
- String getCarsNames()
- Car getBestCar()
}

class CarNamingService {

- final ICarRepository _carRepository

- CarNamingService(ICarRepository carRepository)
- String getCarsNames()
}

class CarComparatorService {

- final ICarRepository _carRepository

- CarComparatorService(ICarRepository carRepository)
- Car getBestCar()
}

CarRepository ..|> ICarRepository
CarRepository "1" *- - "many" Car : contains >
CarRepository ..> Car : creates >

CarService ..|> ICarService
CarService - -> ICarRepository : uses >
CarService - -> ICarNamingService : uses >
CarService - -> ICarComparatorService : uses >

CarNamingService ..|> ICarNamingService
CarNamingService - -> ICarRepository : uses >

CarComparatorService ..|> ICarComparatorService
CarComparatorService - -> ICarRepository : uses >

CarManager - -> ICarService : uses >
CarManager ..> CarRepository : instantiates >
CarManager ..> CarNamingService : instantiates >
CarManager ..> CarComparatorService : instantiates >

note right of CarRepository: Singleton pattern

@enduml

PlantUML version 1.2020.02(Sun Mar 01 11:22:07 CET 2020)
(GPL source distribution)
Java Runtime: OpenJDK Runtime Environment
JVM: OpenJDK 64-Bit Server VM
Java Version: 11.0.25+9
Operating System: Linux
Default Encoding: UTF-8
Language: en
Country: null
--></g></svg>