<svg xmlns="http://www.w3.org/2000/svg" xmlns:xlink="http://www.w3.org/1999/xlink" contentStyleType="text/css" data-diagram-type="CLASS" height="440px" preserveAspectRatio="none" style="width:229px;height:440px;background:#FFFFFF;" version="1.1" viewBox="0 0 229 440" width="229px" zoomAndPan="magnify"><defs/><g><!--class Duck--><g id="elem_Duck"><rect codeLine="1" fill="#F1F1F1" height="80.5938" id="Duck" rx="2.5" ry="2.5" style="stroke:#181818;stroke-width:0.5;" width="113.1445" x="7" y="163.89"/><ellipse cx="42.5589" cy="179.89" fill="#ADD1B2" rx="11" ry="11" style="stroke:#181818;stroke-width:1;"/><path d="M45.5277,185.5306 Q44.9496,185.8275 44.3089,185.9681 Q43.6683,186.1244 42.9652,186.1244 Q40.4652,186.1244 39.1371,184.4838 Q37.8246,182.8275 37.8246,179.7025 Q37.8246,176.5775 39.1371,174.9213 Q40.4652,173.265 42.9652,173.265 Q43.6683,173.265 44.3089,173.4213 Q44.9652,173.5775 45.5277,173.8744 L45.5277,176.5931 Q44.9027,176.015 44.3089,175.7494 Q43.7152,175.4681 43.0902,175.4681 Q41.7464,175.4681 41.0589,176.5463 Q40.3714,177.6088 40.3714,179.7025 Q40.3714,181.7963 41.0589,182.8744 Q41.7464,183.9369 43.0902,183.9369 Q43.7152,183.9369 44.3089,183.6713 Q44.9027,183.39 45.5277,182.8119 L45.5277,185.5306 Z " fill="#000000"/><text fill="#000000" font-family="sans-serif" font-size="14" lengthAdjust="spacing" textLength="35.458" x="61.1276" y="184.7367">Duck</text><line style="stroke:#181818;stroke-width:0.5;" x1="8" x2="119.1445" y1="195.89" y2="195.89"/><line style="stroke:#181818;stroke-width:0.5;" x1="8" x2="119.1445" y1="203.89" y2="203.89"/><ellipse cx="18" cy="217.5384" fill="#84BE84" rx="3" ry="3" style="stroke:#038048;stroke-width:1;"/><text fill="#000000" font-family="sans-serif" font-size="14" lengthAdjust="spacing" textLength="87.1445" x="27" y="220.8851">void quack()</text><ellipse cx="18" cy="233.8353" fill="#84BE84" rx="3" ry="3" style="stroke:#038048;stroke-width:1;"/><text fill="#000000" font-family="sans-serif" font-size="14" lengthAdjust="spacing" textLength="81.2725" x="27" y="237.182">void swim()</text></g><!--class ElectricDuck--><g id="elem_ElectricDuck"><rect codeLine="5" fill="#F1F1F1" height="129.4844" id="ElectricDuck" rx="2.5" ry="2.5" style="stroke:#181818;stroke-width:0.5;" width="120.8691" x="58.14" y="304.49"/><ellipse cx="73.8299" cy="320.49" fill="#ADD1B2" rx="11" ry="11" style="stroke:#181818;stroke-width:1;"/><path d="M76.7987,326.1306 Q76.2206,326.4275 75.5799,326.5681 Q74.9393,326.7244 74.2362,326.7244 Q71.7362,326.7244 70.4081,325.0838 Q69.0956,323.4275 69.0956,320.3025 Q69.0956,317.1775 70.4081,315.5213 Q71.7362,313.865 74.2362,313.865 Q74.9393,313.865 75.5799,314.0213 Q76.2362,314.1775 76.7987,314.4744 L76.7987,317.1931 Q76.1737,316.615 75.5799,316.3494 Q74.9862,316.0681 74.3612,316.0681 Q73.0174,316.0681 72.3299,317.1463 Q71.6424,318.2088 71.6424,320.3025 Q71.6424,322.3963 72.3299,323.4744 Q73.0174,324.5369 74.3612,324.5369 Q74.9862,324.5369 75.5799,324.2713 Q76.1737,323.99 76.7987,323.4119 L76.7987,326.1306 Z " fill="#000000"/><text fill="#000000" font-family="sans-serif" font-size="14" lengthAdjust="spacing" textLength="87.3359" x="87.9833" y="325.3367">ElectricDuck</text><line style="stroke:#181818;stroke-width:0.5;" x1="59.14" x2="178.0091" y1="336.49" y2="336.49"/><rect fill="#FFFFFF" fill-opacity="0.00000" height="6" style="stroke:#C82930;stroke-width:1;" width="6" x="66.14" y="347.1384"/><text fill="#000000" font-family="sans-serif" font-size="14" lengthAdjust="spacing" textLength="84.8613" x="78.14" y="353.4851">boolean _on</text><line style="stroke:#181818;stroke-width:0.5;" x1="59.14" x2="178.0091" y1="360.7869" y2="360.7869"/><ellipse cx="69.14" cy="374.4353" fill="#84BE84" rx="3" ry="3" style="stroke:#038048;stroke-width:1;"/><text fill="#000000" font-family="sans-serif" font-size="14" lengthAdjust="spacing" textLength="87.1445" x="78.14" y="377.782">void quack()</text><ellipse cx="69.14" cy="390.7322" fill="#84BE84" rx="3" ry="3" style="stroke:#038048;stroke-width:1;"/><text fill="#000000" font-family="sans-serif" font-size="14" lengthAdjust="spacing" textLength="81.2725" x="78.14" y="394.0789">void swim()</text><ellipse cx="69.14" cy="407.0291" fill="#84BE84" rx="3" ry="3" style="stroke:#038048;stroke-width:1;"/><text fill="#000000" font-family="sans-serif" font-size="14" lengthAdjust="spacing" textLength="93.8848" x="78.14" y="410.3757">void turnOn()</text><ellipse cx="69.14" cy="423.3259" fill="#84BE84" rx="3" ry="3" style="stroke:#038048;stroke-width:1;"/><text fill="#000000" font-family="sans-serif" font-size="14" lengthAdjust="spacing" textLength="94.8691" x="78.14" y="426.6726">void turnOff()</text></g><!--class Pool--><g id="elem_Pool"><rect codeLine="12" fill="#F1F1F1" height="96.8906" id="Pool" rx="2.5" ry="2.5" style="stroke:#181818;stroke-width:0.5;" width="207.2617" x="14.94" y="7"/><ellipse cx="99.5894" cy="23" fill="#ADD1B2" rx="11" ry="11" style="stroke:#181818;stroke-width:1;"/><path d="M102.5582,28.6406 Q101.98,28.9375 101.3394,29.0781 Q100.6988,29.2344 99.9957,29.2344 Q97.4957,29.2344 96.1675,27.5938 Q94.855,25.9375 94.855,22.8125 Q94.855,19.6875 96.1675,18.0313 Q97.4957,16.375 99.9957,16.375 Q100.6988,16.375 101.3394,16.5313 Q101.9957,16.6875 102.5582,16.9844 L102.5582,19.7031 Q101.9332,19.125 101.3394,18.8594 Q100.7457,18.5781 100.1207,18.5781 Q98.7769,18.5781 98.0894,19.6563 Q97.4019,20.7188 97.4019,22.8125 Q97.4019,24.9063 98.0894,25.9844 Q98.7769,27.0469 100.1207,27.0469 Q100.7457,27.0469 101.3394,26.7813 Q101.9332,26.5 102.5582,25.9219 L102.5582,28.6406 Z " fill="#000000"/><text fill="#000000" font-family="sans-serif" font-size="14" lengthAdjust="spacing" textLength="29.4629" x="120.0894" y="27.8467">Pool</text><line style="stroke:#181818;stroke-width:0.5;" x1="15.94" x2="221.2017" y1="39" y2="39"/><line style="stroke:#181818;stroke-width:0.5;" x1="15.94" x2="221.2017" y1="47" y2="47"/><ellipse cx="25.94" cy="60.6484" fill="#84BE84" rx="3" ry="3" style="stroke:#038048;stroke-width:1;"/><text fill="#000000" font-family="sans-serif" font-size="14" lengthAdjust="spacing" textLength="68.5029" x="34.94" y="63.9951">void run()</text><rect fill="#F24D5C" height="6" style="stroke:#C82930;stroke-width:1;" width="6" x="22.94" y="73.9453"/><text fill="#000000" font-family="sans-serif" font-size="14" lengthAdjust="spacing" textLength="181.2617" x="34.94" y="80.292">void quack(Duck... ducks)</text><rect fill="#F24D5C" height="6" style="stroke:#C82930;stroke-width:1;" width="6" x="22.94" y="90.2422"/><text fill="#000000" font-family="sans-serif" font-size="14" lengthAdjust="spacing" textLength="175.3896" x="34.94" y="96.5889">void swim(Duck... ducks)</text></g><!--reverse link Duck to ElectricDuck--><g id="link_Duck_ElectricDuck"><path codeLine="17" d="M82.6367,261.718 C88.6367,279.528 90.15,283.97 96.91,304.01 " fill="#FFFFFF" fill-opacity="0.00000" id="Duck-backto-ElectricDuck" style="stroke:#181818;stroke-width:1;"/><polygon fill="#FFFFFF" fill-opacity="0.00000" points="76.89,244.66,76.9507,263.6336,88.3227,259.8025,76.89,244.66" style="stroke:#181818;stroke-width:1;"/></g><!--reverse link Pool to Duck--><g id="link_Pool_Duck"><path codeLine="18" d="M96.5059,115.3257 C89.2859,134.5757 85.27,145.29 78.4,163.63 " fill="#FFFFFF" fill-opacity="0.00000" id="Pool-backto-Duck" style="stroke:#181818;stroke-width:1;"/><polygon fill="#181818" points="100.72,104.09,94.8677,108.3031,96.5059,115.3257,102.3582,111.1126,100.72,104.09" style="stroke:#181818;stroke-width:1;"/><text fill="#000000" font-family="sans-serif" font-size="13" lengthAdjust="spacing" textLength="8.271" x="72.2158" y="152.7485">1</text></g><!--reverse link Pool to ElectricDuck--><g id="link_Pool_ElectricDuck"><path codeLine="19" d="M131.1207,116.1408 C134.6207,134.6408 135.85,144.27 137.57,163.89 C140.7,199.57 140.3,208.77 137.57,244.49 C136.08,263.99 133.29,285.07 130.3,304.22 " fill="#FFFFFF" fill-opacity="0.00000" id="Pool-backto-ElectricDuck" style="stroke:#181818;stroke-width:1;"/><polygon fill="#181818" points="128.89,104.35,126.0751,110.989,131.1207,116.1408,133.9356,109.5019,128.89,104.35" style="stroke:#181818;stroke-width:1;"/><text fill="#000000" font-family="sans-serif" font-size="13" lengthAdjust="spacing" textLength="8.271" x="123.1598" y="293.3631">1</text></g><!--SRC=[Iyv9B2vMS2bDpgxcqYxBpqnHA2nDJCxMq8JoYiipSu6SMYvdi4BNdDJaagBCP88Q89oIqg8y_pnKRbeQaA-Rb9-VavgOfn2VdmStF00e1ZEqg1IaJHV90f2LUdfw2Yb0kXWc1RODJQQM2oIWO5EZgulYNYwG-GfQG54bGoK5J15ajG00]--></g></svg>