<?xml version="1.0" encoding="UTF-8" standalone="no"?><svg xmlns="http://www.w3.org/2000/svg" xmlns:xlink="http://www.w3.org/1999/xlink" contentScriptType="application/ecmascript" contentStyleType="text/css" height="302px" preserveAspectRatio="none" style="width:363px;height:302px;" version="1.1" viewBox="0 0 363 302" width="363px" zoomAndPan="magnify"><defs><filter height="300%" id="ffn3pcb5qdz82" width="300%" x="-1" y="-1"><feGaussianBlur result="blurOut" stdDeviation="2.0"/><feColorMatrix in="blurOut" result="blurOut2" type="matrix" values="0 0 0 0 0 0 0 0 0 0 0 0 0 0 0 0 0 0 .4 0"/><feOffset dx="4.0" dy="4.0" in="blurOut2" result="blurOut3"/><feBlend in="SourceGraphic" in2="blurOut3" mode="normal"/></filter></defs><g><!--MD5=[638b1e3a5367ac5a67c3eec5cbc4b6c0]
class CarManager--><rect fill="#FEFECE" filter="url(#ffn3pcb5qdz82)" height="86.4141" id="CarManager" style="stroke: #A80036; stroke-width: 1.5;" width="214" x="72" y="8"/><ellipse cx="136.75" cy="24" fill="#ADD1B2" rx="11" ry="11" style="stroke: #A80036; stroke-width: 1.0;"/><path d="M139.7188,29.6406 Q139.1406,29.9375 138.5,30.0781 Q137.8594,30.2344 137.1563,30.2344 Q134.6563,30.2344 133.3281,28.5938 Q132.0156,26.9375 132.0156,23.8125 Q132.0156,20.6875 133.3281,19.0313 Q134.6563,17.375 137.1563,17.375 Q137.8594,17.375 138.5,17.5313 Q139.1563,17.6875 139.7188,17.9844 L139.7188,20.7031 Q139.0938,20.125 138.5,19.8594 Q137.9063,19.5781 137.2813,19.5781 Q135.9375,19.5781 135.25,20.6563 Q134.5625,21.7188 134.5625,23.8125 Q134.5625,25.9063 135.25,26.9844 Q135.9375,28.0469 137.2813,28.0469 Q137.9063,28.0469 138.5,27.7813 Q139.0938,27.5 139.7188,26.9219 L139.7188,29.6406 Z "/><text fill="#000000" font-family="sans-serif" font-size="12" lengthAdjust="spacingAndGlyphs" textLength="76" x="157.25" y="28.1543">CarManager</text><line style="stroke: #A80036; stroke-width: 1.5;" x1="73" x2="285" y1="40" y2="40"/><line style="stroke: #A80036; stroke-width: 1.5;" x1="73" x2="285" y1="48" y2="48"/><ellipse cx="83" cy="59" fill="#84BE84" rx="3" ry="3" style="stroke: #038048; stroke-width: 1.0;"/><text fill="#000000" font-family="sans-serif" font-size="11" lengthAdjust="spacingAndGlyphs" textLength="188" x="92" y="62.2104">Car getFromDb(final String carId)</text><ellipse cx="83" cy="71.8047" fill="#84BE84" rx="3" ry="3" style="stroke: #038048; stroke-width: 1.0;"/><text fill="#000000" font-family="sans-serif" font-size="11" lengthAdjust="spacingAndGlyphs" textLength="131" x="92" y="75.0151">String getCarsNames()</text><ellipse cx="83" cy="84.6094" fill="#84BE84" rx="3" ry="3" style="stroke: #038048; stroke-width: 1.0;"/><text fill="#000000" font-family="sans-serif" font-size="11" lengthAdjust="spacingAndGlyphs" textLength="96" x="92" y="87.8198">Car getBestCar()</text><!--MD5=[3f0ef310aaa84a542276992c5216544d]
class Car--><rect fill="#FEFECE" filter="url(#ffn3pcb5qdz82)" height="137.6328" id="Car" style="stroke: #A80036; stroke-width: 1.5;" width="346" x="6" y="154"/><ellipse cx="164.25" cy="170" fill="#ADD1B2" rx="11" ry="11" style="stroke: #A80036; stroke-width: 1.0;"/><path d="M167.2188,175.6406 Q166.6406,175.9375 166,176.0781 Q165.3594,176.2344 164.6563,176.2344 Q162.1563,176.2344 160.8281,174.5938 Q159.5156,172.9375 159.5156,169.8125 Q159.5156,166.6875 160.8281,165.0313 Q162.1563,163.375 164.6563,163.375 Q165.3594,163.375 166,163.5313 Q166.6563,163.6875 167.2188,163.9844 L167.2188,166.7031 Q166.5938,166.125 166,165.8594 Q165.4063,165.5781 164.7813,165.5781 Q163.4375,165.5781 162.75,166.6563 Q162.0625,167.7188 162.0625,169.8125 Q162.0625,171.9063 162.75,172.9844 Q163.4375,174.0469 164.7813,174.0469 Q165.4063,174.0469 166,173.7813 Q166.5938,173.5 167.2188,172.9219 L167.2188,175.6406 Z "/><text fill="#000000" font-family="sans-serif" font-size="12" lengthAdjust="spacingAndGlyphs" textLength="21" x="184.75" y="174.1543">Car</text><line style="stroke: #A80036; stroke-width: 1.5;" x1="7" x2="351" y1="186" y2="186"/><rect fill="none" height="6" style="stroke: #C82930; stroke-width: 1.0;" width="6" x="14" y="194"/><text fill="#000000" font-family="sans-serif" font-size="11" lengthAdjust="spacingAndGlyphs" textLength="82" x="26" y="200.2104">final String _id</text><rect fill="none" height="6" style="stroke: #C82930; stroke-width: 1.0;" width="6" x="14" y="206.8047"/><text fill="#000000" font-family="sans-serif" font-size="11" lengthAdjust="spacingAndGlyphs" textLength="103" x="26" y="213.0151">final String_model</text><rect fill="none" height="6" style="stroke: #C82930; stroke-width: 1.0;" width="6" x="14" y="219.6094"/><text fill="#000000" font-family="sans-serif" font-size="11" lengthAdjust="spacingAndGlyphs" textLength="105" x="26" y="225.8198">final String _brand</text><line style="stroke: #A80036; stroke-width: 1.5;" x1="7" x2="351" y1="232.4141" y2="232.4141"/><rect fill="#F24D5C" height="6" style="stroke: #C82930; stroke-width: 1.0;" width="6" x="14" y="240.4141"/><text fill="#000000" font-family="sans-serif" font-size="11" lengthAdjust="spacingAndGlyphs" textLength="320" x="26" y="246.6245">Car(final String id, final String model, final String brand)</text><rect fill="#F24D5C" height="6" style="stroke: #C82930; stroke-width: 1.0;" width="6" x="14" y="253.2188"/><text fill="#000000" font-family="sans-serif" font-size="11" lengthAdjust="spacingAndGlyphs" textLength="74" x="26" y="259.4292">String getId()</text><rect fill="#F24D5C" height="6" style="stroke: #C82930; stroke-width: 1.0;" width="6" x="14" y="266.0234"/><text fill="#000000" font-family="sans-serif" font-size="11" lengthAdjust="spacingAndGlyphs" textLength="97" x="26" y="272.2339">String getModel()</text><rect fill="#F24D5C" height="6" style="stroke: #C82930; stroke-width: 1.0;" width="6" x="14" y="278.8281"/><text fill="#000000" font-family="sans-serif" font-size="11" lengthAdjust="spacingAndGlyphs" textLength="98" x="26" y="285.0386">String getBrand()</text><!--MD5=[0881832f593f228eb30f4bd32fd71e54]
reverse link CarManager to Car--><path d="M179,107.19 C179,122.01 179,138.22 179,153.67 " fill="none" id="CarManager&lt;-Car" style="stroke: #A80036; stroke-width: 1.0;"/><polygon fill="#A80036" points="179,94.02,175,100.02,179,106.02,183,100.02,179,94.02" style="stroke: #A80036; stroke-width: 1.0;"/><!--MD5=[e77bec5afe5cc23286f4a22ebd0a2790]
@startuml oldSRPDiagram
class CarManager {
    + Car getFromDb(final String carId)
    + String getCarsNames()
    + Car getBestCar()
}
class Car{
    - final String _id
    - final String_model
    - final String _brand
- Car(final String id, final String model, final String brand)
- String getId()
- String getModel()
- String getBrand()
}
CarManager *- - Car
@enduml

PlantUML version 1.2020.02(Sun Mar 01 11:22:07 CET 2020)
(GPL source distribution)
Java Runtime: OpenJDK Runtime Environment
JVM: OpenJDK 64-Bit Server VM
Java Version: 11.0.25+9
Operating System: Linux
Default Encoding: UTF-8
Language: en
Country: null
--></g></svg>