<?xml version="1.0" encoding="UTF-8" standalone="no"?><svg xmlns="http://www.w3.org/2000/svg" xmlns:xlink="http://www.w3.org/1999/xlink" contentScriptType="application/ecmascript" contentStyleType="text/css" height="474px" preserveAspectRatio="none" style="width:420px;height:474px;" version="1.1" viewBox="0 0 420 474" width="420px" zoomAndPan="magnify"><defs><filter height="300%" id="f672acjqsgpwt" width="300%" x="-1" y="-1"><feGaussianBlur result="blurOut" stdDeviation="2.0"/><feColorMatrix in="blurOut" result="blurOut2" type="matrix" values="0 0 0 0 0 0 0 0 0 0 0 0 0 0 0 0 0 0 .4 0"/><feOffset dx="4.0" dy="4.0" in="blurOut2" result="blurOut3"/><feBlend in="SourceGraphic" in2="blurOut3" mode="normal"/></filter></defs><g><!--MD5=[638b1e3a5367ac5a67c3eec5cbc4b6c0]
class CarManager--><rect fill="#FEFECE" filter="url(#f672acjqsgpwt)" height="99.2188" id="CarManager" style="stroke: #A80036; stroke-width: 1.5;" width="222" x="96.5" y="8"/><ellipse cx="165.25" cy="24" fill="#ADD1B2" rx="11" ry="11" style="stroke: #A80036; stroke-width: 1.0;"/><path d="M168.2188,29.6406 Q167.6406,29.9375 167,30.0781 Q166.3594,30.2344 165.6563,30.2344 Q163.1563,30.2344 161.8281,28.5938 Q160.5156,26.9375 160.5156,23.8125 Q160.5156,20.6875 161.8281,19.0313 Q163.1563,17.375 165.6563,17.375 Q166.3594,17.375 167,17.5313 Q167.6563,17.6875 168.2188,17.9844 L168.2188,20.7031 Q167.5938,20.125 167,19.8594 Q166.4063,19.5781 165.7813,19.5781 Q164.4375,19.5781 163.75,20.6563 Q163.0625,21.7188 163.0625,23.8125 Q163.0625,25.9063 163.75,26.9844 Q164.4375,28.0469 165.7813,28.0469 Q166.4063,28.0469 167,27.7813 Q167.5938,27.5 168.2188,26.9219 L168.2188,29.6406 Z "/><text fill="#000000" font-family="sans-serif" font-size="12" lengthAdjust="spacingAndGlyphs" textLength="76" x="185.75" y="28.1543">CarManager</text><line style="stroke: #A80036; stroke-width: 1.5;" x1="97.5" x2="317.5" y1="40" y2="40"/><rect fill="none" height="6" style="stroke: #C82930; stroke-width: 1.0;" width="6" x="104.5" y="48"/><text fill="#000000" font-family="sans-serif" font-size="11" lengthAdjust="spacingAndGlyphs" textLength="196" x="116.5" y="54.2104">final CarRepository _carRepository</text><line style="stroke: #A80036; stroke-width: 1.5;" x1="97.5" x2="317.5" y1="60.8047" y2="60.8047"/><ellipse cx="107.5" cy="71.8047" fill="#84BE84" rx="3" ry="3" style="stroke: #038048; stroke-width: 1.0;"/><text fill="#000000" font-family="sans-serif" font-size="11" lengthAdjust="spacingAndGlyphs" textLength="136" x="116.5" y="75.0151">Car getCar(String carId)</text><ellipse cx="107.5" cy="84.6094" fill="#84BE84" rx="3" ry="3" style="stroke: #038048; stroke-width: 1.0;"/><text fill="#000000" font-family="sans-serif" font-size="11" lengthAdjust="spacingAndGlyphs" textLength="131" x="116.5" y="87.8198">String getCarsNames()</text><ellipse cx="107.5" cy="97.4141" fill="#84BE84" rx="3" ry="3" style="stroke: #038048; stroke-width: 1.0;"/><text fill="#000000" font-family="sans-serif" font-size="11" lengthAdjust="spacingAndGlyphs" textLength="96" x="116.5" y="100.6245">Car getBestCar()</text><!--MD5=[f1f7511de20c5d4c2983d5f8d0b1d578]
class CarRepository--><rect fill="#FEFECE" filter="url(#f672acjqsgpwt)" height="99.2188" id="CarRepository" style="stroke: #A80036; stroke-width: 1.5;" width="403" x="6" y="167"/><ellipse cx="159.75" cy="183" fill="#ADD1B2" rx="11" ry="11" style="stroke: #A80036; stroke-width: 1.0;"/><path d="M162.7188,188.6406 Q162.1406,188.9375 161.5,189.0781 Q160.8594,189.2344 160.1563,189.2344 Q157.6563,189.2344 156.3281,187.5938 Q155.0156,185.9375 155.0156,182.8125 Q155.0156,179.6875 156.3281,178.0313 Q157.6563,176.375 160.1563,176.375 Q160.8594,176.375 161.5,176.5313 Q162.1563,176.6875 162.7188,176.9844 L162.7188,179.7031 Q162.0938,179.125 161.5,178.8594 Q160.9063,178.5781 160.2813,178.5781 Q158.9375,178.5781 158.25,179.6563 Q157.5625,180.7188 157.5625,182.8125 Q157.5625,184.9063 158.25,185.9844 Q158.9375,187.0469 160.2813,187.0469 Q160.9063,187.0469 161.5,186.7813 Q162.0938,186.5 162.7188,185.9219 L162.7188,188.6406 Z "/><text fill="#000000" font-family="sans-serif" font-size="12" lengthAdjust="spacingAndGlyphs" textLength="87" x="180.25" y="187.1543">CarRepository</text><line style="stroke: #A80036; stroke-width: 1.5;" x1="7" x2="408" y1="199" y2="199"/><rect fill="none" height="6" style="stroke: #C82930; stroke-width: 1.0;" width="6" x="14" y="207"/><text fill="#000000" font-family="sans-serif" font-size="11" lengthAdjust="spacingAndGlyphs" textLength="104" x="26" y="213.2104">List&lt;Car&gt;_carsDb</text><line style="stroke: #A80036; stroke-width: 1.5;" x1="7" x2="408" y1="219.8047" y2="219.8047"/><ellipse cx="17" cy="230.8047" fill="#84BE84" rx="3" ry="3" style="stroke: #038048; stroke-width: 1.0;"/><text fill="#000000" font-family="sans-serif" font-size="11" lengthAdjust="spacingAndGlyphs" textLength="377" x="26" y="234.0151">void addToDb(final String id, final String model, final String brand)</text><ellipse cx="17" cy="243.6094" fill="#84BE84" rx="3" ry="3" style="stroke: #038048; stroke-width: 1.0;"/><text fill="#000000" font-family="sans-serif" font-size="11" lengthAdjust="spacingAndGlyphs" textLength="188" x="26" y="246.8198">Car getFromDb(final String carId)</text><ellipse cx="17" cy="256.4141" fill="#84BE84" rx="3" ry="3" style="stroke: #038048; stroke-width: 1.0;"/><text fill="#000000" font-family="sans-serif" font-size="11" lengthAdjust="spacingAndGlyphs" textLength="145" x="26" y="259.6245">List&lt;Car&gt; getAllFromDb()</text><!--MD5=[3f0ef310aaa84a542276992c5216544d]
class Car--><rect fill="#FEFECE" filter="url(#f672acjqsgpwt)" height="137.6328" id="Car" style="stroke: #A80036; stroke-width: 1.5;" width="346" x="34.5" y="326"/><ellipse cx="192.75" cy="342" fill="#ADD1B2" rx="11" ry="11" style="stroke: #A80036; stroke-width: 1.0;"/><path d="M195.7188,347.6406 Q195.1406,347.9375 194.5,348.0781 Q193.8594,348.2344 193.1563,348.2344 Q190.6563,348.2344 189.3281,346.5938 Q188.0156,344.9375 188.0156,341.8125 Q188.0156,338.6875 189.3281,337.0313 Q190.6563,335.375 193.1563,335.375 Q193.8594,335.375 194.5,335.5313 Q195.1563,335.6875 195.7188,335.9844 L195.7188,338.7031 Q195.0938,338.125 194.5,337.8594 Q193.9063,337.5781 193.2813,337.5781 Q191.9375,337.5781 191.25,338.6563 Q190.5625,339.7188 190.5625,341.8125 Q190.5625,343.9063 191.25,344.9844 Q191.9375,346.0469 193.2813,346.0469 Q193.9063,346.0469 194.5,345.7813 Q195.0938,345.5 195.7188,344.9219 L195.7188,347.6406 Z "/><text fill="#000000" font-family="sans-serif" font-size="12" lengthAdjust="spacingAndGlyphs" textLength="21" x="213.25" y="346.1543">Car</text><line style="stroke: #A80036; stroke-width: 1.5;" x1="35.5" x2="379.5" y1="358" y2="358"/><rect fill="none" height="6" style="stroke: #C82930; stroke-width: 1.0;" width="6" x="42.5" y="366"/><text fill="#000000" font-family="sans-serif" font-size="11" lengthAdjust="spacingAndGlyphs" textLength="82" x="54.5" y="372.2104">final String _id</text><rect fill="none" height="6" style="stroke: #C82930; stroke-width: 1.0;" width="6" x="42.5" y="378.8047"/><text fill="#000000" font-family="sans-serif" font-size="11" lengthAdjust="spacingAndGlyphs" textLength="103" x="54.5" y="385.0151">final String_model</text><rect fill="none" height="6" style="stroke: #C82930; stroke-width: 1.0;" width="6" x="42.5" y="391.6094"/><text fill="#000000" font-family="sans-serif" font-size="11" lengthAdjust="spacingAndGlyphs" textLength="105" x="54.5" y="397.8198">final String _brand</text><line style="stroke: #A80036; stroke-width: 1.5;" x1="35.5" x2="379.5" y1="404.4141" y2="404.4141"/><rect fill="#F24D5C" height="6" style="stroke: #C82930; stroke-width: 1.0;" width="6" x="42.5" y="412.4141"/><text fill="#000000" font-family="sans-serif" font-size="11" lengthAdjust="spacingAndGlyphs" textLength="320" x="54.5" y="418.6245">Car(final String id, final String model, final String brand)</text><rect fill="#F24D5C" height="6" style="stroke: #C82930; stroke-width: 1.0;" width="6" x="42.5" y="425.2188"/><text fill="#000000" font-family="sans-serif" font-size="11" lengthAdjust="spacingAndGlyphs" textLength="74" x="54.5" y="431.4292">String getId()</text><rect fill="#F24D5C" height="6" style="stroke: #C82930; stroke-width: 1.0;" width="6" x="42.5" y="438.0234"/><text fill="#000000" font-family="sans-serif" font-size="11" lengthAdjust="spacingAndGlyphs" textLength="97" x="54.5" y="444.2339">String getModel()</text><rect fill="#F24D5C" height="6" style="stroke: #C82930; stroke-width: 1.0;" width="6" x="42.5" y="450.8281"/><text fill="#000000" font-family="sans-serif" font-size="11" lengthAdjust="spacingAndGlyphs" textLength="98" x="54.5" y="457.0386">String getBrand()</text><!--MD5=[7cd7c0f6dfd2a6e4ccdd4b60dc42f5b5]
reverse link CarRepository to Car--><path d="M207.5,279.61 C207.5,294.61 207.5,310.72 207.5,325.98 " fill="none" id="CarRepository&lt;-Car" style="stroke: #A80036; stroke-width: 1.0;"/><polygon fill="#A80036" points="207.5,266.2,203.5,272.2,207.5,278.2,211.5,272.2,207.5,266.2" style="stroke: #A80036; stroke-width: 1.0;"/><!--MD5=[e488997cd50ee756f1e458aa2c14d93b]
link CarManager to CarRepository--><path d="M207.5,107.32 C207.5,124.53 207.5,143.97 207.5,161.58 " fill="none" id="CarManager-&gt;CarRepository" style="stroke: #A80036; stroke-width: 1.0; stroke-dasharray: 7.0,7.0;"/><polygon fill="#A80036" points="207.5,166.98,211.5,157.98,207.5,161.98,203.5,157.98,207.5,166.98" style="stroke: #A80036; stroke-width: 1.0;"/><!--MD5=[b2f010147a8d6ad89dfad024e306eb75]
@startuml SRPDiagram
class CarManager {
    - final CarRepository _carRepository
    + Car getCar(String carId)
    + String getCarsNames()
    + Car getBestCar()
}
class CarRepository{
    - List<Car>_carsDb
    + void addToDb(final String id, final String model, final String brand)
    + Car getFromDb(final String carId)
    + List<Car> getAllFromDb()
}
class Car{
    - final String _id
    - final String_model
    - final String _brand
- Car(final String id, final String model, final String brand)
- String getId()
- String getModel()
- String getBrand()
}
CarRepository *- - Car
CarManager ..> CarRepository
@enduml

PlantUML version 1.2020.02(Sun Mar 01 11:22:07 CET 2020)
(GPL source distribution)
Java Runtime: OpenJDK Runtime Environment
JVM: OpenJDK 64-Bit Server VM
Java Version: 11.0.25+9
Operating System: Linux
Default Encoding: UTF-8
Language: en
Country: null
--></g></svg>