<svg xmlns="http://www.w3.org/2000/svg" xmlns:xlink="http://www.w3.org/1999/xlink" contentStyleType="text/css" height="440px" preserveAspectRatio="none" style="width:472px;height:440px;background:#FFFFFF;" version="1.1" viewBox="0 0 472 440" width="472px" zoomAndPan="magnify"><defs/><g><!--class Door--><g id="elem_Door"><rect codeLine="1" fill="#F1F1F1" height="145.7813" id="Door" rx="2.5" ry="2.5" style="stroke:#181818;stroke-width:0.5;" width="163.0127" x="129" y="131"/><ellipse cx="189.4229" cy="147" fill="#B4A7E5" rx="11" ry="11" style="stroke:#181818;stroke-width:1;"/><path d="M185.3447,142.7656 L185.3447,140.6094 L192.7354,140.6094 L192.7354,142.7656 L190.2666,142.7656 L190.2666,150.8438 L192.7354,150.8438 L192.7354,153 L185.3447,153 L185.3447,150.8438 L187.8135,150.8438 L187.8135,142.7656 L185.3447,142.7656 Z " fill="#000000"/><text fill="#000000" font-family="sans-serif" font-size="14" font-style="italic" lengthAdjust="spacing" textLength="33.667" x="209.9229" y="151.8467">Door</text><line style="stroke:#181818;stroke-width:0.5;" x1="130" x2="291.0127" y1="163" y2="163"/><line style="stroke:#181818;stroke-width:0.5;" x1="130" x2="291.0127" y1="171" y2="171"/><ellipse cx="140" cy="184.6484" fill="#84BE84" rx="3" ry="3" style="stroke:#038048;stroke-width:1;"/><text fill="#000000" font-family="sans-serif" font-size="14" lengthAdjust="spacing" textLength="39.1836" x="149" y="187.9951">lock()</text><ellipse cx="140" cy="200.9453" fill="#84BE84" rx="3" ry="3" style="stroke:#038048;stroke-width:1;"/><text fill="#000000" font-family="sans-serif" font-size="14" lengthAdjust="spacing" textLength="56.9297" x="149" y="204.292">unlock()</text><ellipse cx="140" cy="217.2422" fill="#84BE84" rx="3" ry="3" style="stroke:#038048;stroke-width:1;"/><text fill="#000000" font-family="sans-serif" font-size="14" lengthAdjust="spacing" textLength="45.8623" x="149" y="220.5889">open()</text><ellipse cx="140" cy="233.5391" fill="#84BE84" rx="3" ry="3" style="stroke:#038048;stroke-width:1;"/><text fill="#000000" font-family="sans-serif" font-size="14" lengthAdjust="spacing" textLength="46.9834" x="149" y="236.8857">close()</text><ellipse cx="140" cy="249.8359" fill="#84BE84" rx="3" ry="3" style="stroke:#038048;stroke-width:1;"/><text fill="#000000" font-family="sans-serif" font-size="14" lengthAdjust="spacing" textLength="127.3398" x="149" y="253.1826">timeOutCallback()</text><ellipse cx="140" cy="266.1328" fill="#84BE84" rx="3" ry="3" style="stroke:#038048;stroke-width:1;"/><text fill="#000000" font-family="sans-serif" font-size="14" lengthAdjust="spacing" textLength="137.0127" x="149" y="269.4795">proximityCallback()</text></g><!--class SensingDoor--><g id="elem_SensingDoor"><rect codeLine="10" fill="#F1F1F1" height="80.5938" id="SensingDoor" rx="2.5" ry="2.5" style="stroke:#181818;stroke-width:0.5;" width="145.8613" x="47.5" y="345"/><ellipse cx="73.6951" cy="361" fill="#ADD1B2" rx="11" ry="11" style="stroke:#181818;stroke-width:1;"/><path d="M76.6638,366.6406 Q76.0857,366.9375 75.4451,367.0781 Q74.8044,367.2344 74.1013,367.2344 Q71.6013,367.2344 70.2732,365.5938 Q68.9607,363.9375 68.9607,360.8125 Q68.9607,357.6875 70.2732,356.0313 Q71.6013,354.375 74.1013,354.375 Q74.8044,354.375 75.4451,354.5313 Q76.1013,354.6875 76.6638,354.9844 L76.6638,357.7031 Q76.0388,357.125 75.4451,356.8594 Q74.8513,356.5781 74.2263,356.5781 Q72.8826,356.5781 72.1951,357.6563 Q71.5076,358.7188 71.5076,360.8125 Q71.5076,362.9063 72.1951,363.9844 Q72.8826,365.0469 74.2263,365.0469 Q74.8513,365.0469 75.4451,364.7813 Q76.0388,364.5 76.6638,363.9219 L76.6638,366.6406 Z " fill="#000000"/><text fill="#000000" font-family="sans-serif" font-size="14" lengthAdjust="spacing" textLength="88.9834" x="90.1829" y="365.8467">SensingDoor</text><line style="stroke:#181818;stroke-width:0.5;" x1="48.5" x2="192.3613" y1="377" y2="377"/><rect fill="none" height="6" style="stroke:#C82930;stroke-width:1;" width="6" x="55.5" y="387.6484"/><text fill="#000000" font-family="sans-serif" font-size="14" lengthAdjust="spacing" textLength="113.1826" x="67.5" y="393.9951">boolean _locked</text><rect fill="none" height="6" style="stroke:#C82930;stroke-width:1;" width="6" x="55.5" y="403.9453"/><text fill="#000000" font-family="sans-serif" font-size="14" lengthAdjust="spacing" textLength="119.8613" x="67.5" y="410.292">boolean _opened</text><line style="stroke:#181818;stroke-width:0.5;" x1="48.5" x2="192.3613" y1="417.5938" y2="417.5938"/></g><!--class TimedDoor--><g id="elem_TimedDoor"><rect codeLine="15" fill="#F1F1F1" height="96.8906" id="TimedDoor" rx="2.5" ry="2.5" style="stroke:#181818;stroke-width:0.5;" width="145.8613" x="228.5" y="337"/><ellipse cx="259.9769" cy="353" fill="#ADD1B2" rx="11" ry="11" style="stroke:#181818;stroke-width:1;"/><path d="M262.9456,358.6406 Q262.3675,358.9375 261.7269,359.0781 Q261.0862,359.2344 260.3831,359.2344 Q257.8831,359.2344 256.555,357.5938 Q255.2425,355.9375 255.2425,352.8125 Q255.2425,349.6875 256.555,348.0313 Q257.8831,346.375 260.3831,346.375 Q261.0862,346.375 261.7269,346.5313 Q262.3831,346.6875 262.9456,346.9844 L262.9456,349.7031 Q262.3206,349.125 261.7269,348.8594 Q261.1331,348.5781 260.5081,348.5781 Q259.1644,348.5781 258.4769,349.6563 Q257.7894,350.7188 257.7894,352.8125 Q257.7894,354.9063 258.4769,355.9844 Q259.1644,357.0469 260.5081,357.0469 Q261.1331,357.0469 261.7269,356.7813 Q262.3206,356.5 262.9456,355.9219 L262.9456,358.6406 Z " fill="#000000"/><text fill="#000000" font-family="sans-serif" font-size="14" lengthAdjust="spacing" textLength="77.2461" x="277.6384" y="357.8467">TimedDoor</text><line style="stroke:#181818;stroke-width:0.5;" x1="229.5" x2="373.3613" y1="369" y2="369"/><rect fill="none" height="6" style="stroke:#C82930;stroke-width:1;" width="6" x="236.5" y="379.6484"/><text fill="#000000" font-family="sans-serif" font-size="14" lengthAdjust="spacing" textLength="113.1826" x="248.5" y="385.9951">boolean _locked</text><rect fill="none" height="6" style="stroke:#C82930;stroke-width:1;" width="6" x="236.5" y="395.9453"/><text fill="#000000" font-family="sans-serif" font-size="14" lengthAdjust="spacing" textLength="119.8613" x="248.5" y="402.292">boolean _opened</text><rect fill="none" height="6" style="stroke:#C82930;stroke-width:1;" width="6" x="236.5" y="412.2422"/><text fill="#000000" font-family="sans-serif" font-size="14" lengthAdjust="spacing" text-decoration="underline" textLength="93.126" x="248.5" y="418.5889">int TIME_OUT</text><line style="stroke:#181818;stroke-width:0.5;" x1="229.5" x2="373.3613" y1="425.8906" y2="425.8906"/></g><!--class Sensor--><g id="elem_Sensor"><rect codeLine="21" fill="#F1F1F1" height="64.2969" id="Sensor" rx="2.5" ry="2.5" style="stroke:#181818;stroke-width:0.5;" width="161.1123" x="7" y="7"/><ellipse cx="59.312" cy="23" fill="#ADD1B2" rx="11" ry="11" style="stroke:#181818;stroke-width:1;"/><path d="M62.2808,28.6406 Q61.7026,28.9375 61.062,29.0781 Q60.4214,29.2344 59.7183,29.2344 Q57.2183,29.2344 55.8901,27.5938 Q54.5776,25.9375 54.5776,22.8125 Q54.5776,19.6875 55.8901,18.0313 Q57.2183,16.375 59.7183,16.375 Q60.4214,16.375 61.062,16.5313 Q61.7183,16.6875 62.2808,16.9844 L62.2808,19.7031 Q61.6558,19.125 61.062,18.8594 Q60.4683,18.5781 59.8433,18.5781 Q58.4995,18.5781 57.812,19.6563 Q57.1245,20.7188 57.1245,22.8125 Q57.1245,24.9063 57.812,25.9844 Q58.4995,27.0469 59.8433,27.0469 Q60.4683,27.0469 61.062,26.7813 Q61.6558,26.5 62.2808,25.9219 L62.2808,28.6406 Z " fill="#000000"/><text fill="#000000" font-family="sans-serif" font-size="14" lengthAdjust="spacing" textLength="47.9883" x="79.812" y="27.8467">Sensor</text><line style="stroke:#181818;stroke-width:0.5;" x1="8" x2="167.1123" y1="39" y2="39"/><line style="stroke:#181818;stroke-width:0.5;" x1="8" x2="167.1123" y1="47" y2="47"/><ellipse cx="18" cy="60.6484" fill="#84BE84" rx="3" ry="3" style="stroke:#038048;stroke-width:1;"/><text fill="#000000" font-family="sans-serif" font-size="14" lengthAdjust="spacing" textLength="135.1123" x="27" y="63.9951">register(Door door)</text></g><!--class Timer--><g id="elem_Timer"><rect codeLine="25" fill="#F1F1F1" height="64.2969" id="Timer" rx="2.5" ry="2.5" style="stroke:#181818;stroke-width:0.5;" width="261.6895" x="203.5" y="7"/><ellipse cx="309.8706" cy="23" fill="#ADD1B2" rx="11" ry="11" style="stroke:#181818;stroke-width:1;"/><path d="M312.8394,28.6406 Q312.2612,28.9375 311.6206,29.0781 Q310.98,29.2344 310.2769,29.2344 Q307.7769,29.2344 306.4487,27.5938 Q305.1362,25.9375 305.1362,22.8125 Q305.1362,19.6875 306.4487,18.0313 Q307.7769,16.375 310.2769,16.375 Q310.98,16.375 311.6206,16.5313 Q312.2769,16.6875 312.8394,16.9844 L312.8394,19.7031 Q312.2144,19.125 311.6206,18.8594 Q311.0269,18.5781 310.4019,18.5781 Q309.0581,18.5781 308.3706,19.6563 Q307.6831,20.7188 307.6831,22.8125 Q307.6831,24.9063 308.3706,25.9844 Q309.0581,27.0469 310.4019,27.0469 Q311.0269,27.0469 311.6206,26.7813 Q312.2144,26.5 312.8394,25.9219 L312.8394,28.6406 Z " fill="#000000"/><text fill="#000000" font-family="sans-serif" font-size="14" lengthAdjust="spacing" textLength="40.4482" x="330.3706" y="27.8467">Timer</text><line style="stroke:#181818;stroke-width:0.5;" x1="204.5" x2="464.1895" y1="39" y2="39"/><line style="stroke:#181818;stroke-width:0.5;" x1="204.5" x2="464.1895" y1="47" y2="47"/><ellipse cx="214.5" cy="60.6484" fill="#84BE84" rx="3" ry="3" style="stroke:#038048;stroke-width:1;"/><text fill="#000000" font-family="sans-serif" font-size="14" lengthAdjust="spacing" textLength="235.6895" x="223.5" y="63.9951">register(long timeOut, Door door)</text></g><!--reverse link Door to SensingDoor--><g id="link_Door_SensingDoor"><path codeLine="29" d="M166.2162,293.3227 C154.6462,316.4127 150.32,325.02 140.36,344.89 " fill="none" id="Door-backto-SensingDoor" style="stroke:#181818;stroke-width:1;stroke-dasharray:7.0,7.0;"/><polygon fill="none" points="174.28,277.23,160.852,290.6348,171.5805,296.0106,174.28,277.23" style="stroke:#181818;stroke-width:1;"/></g><!--reverse link Door to TimedDoor--><g id="link_Door_TimedDoor"><path codeLine="30" d="M255.2561,293.2863 C265.4261,313.3563 268.08,318.59 277.35,336.86 " fill="none" id="Door-backto-TimedDoor" style="stroke:#181818;stroke-width:1;stroke-dasharray:7.0,7.0;"/><polygon fill="none" points="247.12,277.23,249.904,295.9983,260.6082,290.5742,247.12,277.23" style="stroke:#181818;stroke-width:1;"/></g><!--link Sensor to Door--><g id="link_Sensor_Door"><path codeLine="31" d="M110.92,71.04 C123.75,88.04 136.6072,105.0696 152.4372,126.0596 " fill="none" id="Sensor-to-Door" style="stroke:#181818;stroke-width:1;stroke-dasharray:7.0,7.0;"/><polygon fill="#181818" points="156.05,130.85,153.8244,121.2559,153.0394,126.858,147.4373,126.0729,156.05,130.85" style="stroke:#181818;stroke-width:1;"/></g><!--link Timer to Door--><g id="link_Timer_Door"><path codeLine="32" d="M310.88,71.04 C297.96,88.04 284.9816,105.0839 269.0216,126.0739 " fill="none" id="Timer-to-Door" style="stroke:#181818;stroke-width:1;stroke-dasharray:7.0,7.0;"/><polygon fill="#181818" points="265.39,130.85,274.0215,126.1069,268.4163,126.8699,267.6533,121.2647,265.39,130.85" style="stroke:#181818;stroke-width:1;"/></g><!--SRC=[dL3B3e8m4BptA_OeKVa2uqKzU30Sn3CfPIMDfKjeIJJ8lrkUASQJFJIPQNTcTgIsMDsvG3WILT0mS6SDYiHZ5OoWrWj89UeP24K6PsHbWL5j3rofb7iZPKLFMKZxybvQneJYni0LjP4wz_ota18fv1gIpXcpRxQBuDXP8dQ-sHy20ziOowqKBKXj8JvVJabqYvVvl6egpALnfQrwlynTmJB8Zw-AT3wLiu7bO8zsxp3qY_3OUJSs1Wd3VI_11hC9VW00]--></g></svg>