<svg xmlns="http://www.w3.org/2000/svg" xmlns:xlink="http://www.w3.org/1999/xlink" contentStyleType="text/css" height="407px" preserveAspectRatio="none" style="width:610px;height:407px;background:#FFFFFF;" version="1.1" viewBox="0 0 610 407" width="610px" zoomAndPan="magnify"><defs/><g><!--class IDoor--><g id="elem_IDoor"><rect codeLine="1" fill="#F1F1F1" height="113.1875" id="IDoor" rx="2.5" ry="2.5" style="stroke:#181818;stroke-width:0.5;" width="82.9297" x="248" y="131"/><ellipse cx="268.9102" cy="147" fill="#B4A7E5" rx="11" ry="11" style="stroke:#181818;stroke-width:1;"/><path d="M264.8321,142.7656 L264.8321,140.6094 L272.2227,140.6094 L272.2227,142.7656 L269.754,142.7656 L269.754,150.8438 L272.2227,150.8438 L272.2227,153 L264.8321,153 L264.8321,150.8438 L267.3008,150.8438 L267.3008,142.7656 L264.8321,142.7656 Z " fill="#000000"/><text fill="#000000" font-family="sans-serif" font-size="14" font-style="italic" lengthAdjust="spacing" textLength="37.7959" x="284.2236" y="151.8467">IDoor</text><line style="stroke:#181818;stroke-width:0.5;" x1="249" x2="329.9297" y1="163" y2="163"/><line style="stroke:#181818;stroke-width:0.5;" x1="249" x2="329.9297" y1="171" y2="171"/><ellipse cx="259" cy="184.6484" fill="#84BE84" rx="3" ry="3" style="stroke:#038048;stroke-width:1;"/><text fill="#000000" font-family="sans-serif" font-size="14" lengthAdjust="spacing" textLength="39.1836" x="268" y="187.9951">lock()</text><ellipse cx="259" cy="200.9453" fill="#84BE84" rx="3" ry="3" style="stroke:#038048;stroke-width:1;"/><text fill="#000000" font-family="sans-serif" font-size="14" lengthAdjust="spacing" textLength="56.9297" x="268" y="204.292">unlock()</text><ellipse cx="259" cy="217.2422" fill="#84BE84" rx="3" ry="3" style="stroke:#038048;stroke-width:1;"/><text fill="#000000" font-family="sans-serif" font-size="14" lengthAdjust="spacing" textLength="45.8623" x="268" y="220.5889">open()</text><ellipse cx="259" cy="233.5391" fill="#84BE84" rx="3" ry="3" style="stroke:#038048;stroke-width:1;"/><text fill="#000000" font-family="sans-serif" font-size="14" lengthAdjust="spacing" textLength="46.9834" x="268" y="236.8857">close()</text></g><!--class ITimed--><g id="elem_ITimed"><rect codeLine="8" fill="#F1F1F1" height="64.2969" id="ITimed" rx="2.5" ry="2.5" style="stroke:#181818;stroke-width:0.5;" width="153.3398" x="367" y="155.5"/><ellipse cx="415.5659" cy="171.5" fill="#B4A7E5" rx="11" ry="11" style="stroke:#181818;stroke-width:1;"/><path d="M411.4878,167.2656 L411.4878,165.1094 L418.8784,165.1094 L418.8784,167.2656 L416.4097,167.2656 L416.4097,175.3438 L418.8784,175.3438 L418.8784,177.5 L411.4878,177.5 L411.4878,175.3438 L413.9565,175.3438 L413.9565,167.2656 L411.4878,167.2656 Z " fill="#000000"/><text fill="#000000" font-family="sans-serif" font-size="14" font-style="italic" lengthAdjust="spacing" textLength="47.708" x="436.0659" y="176.3467">ITimed</text><line style="stroke:#181818;stroke-width:0.5;" x1="368" x2="519.3398" y1="187.5" y2="187.5"/><line style="stroke:#181818;stroke-width:0.5;" x1="368" x2="519.3398" y1="195.5" y2="195.5"/><ellipse cx="378" cy="209.1484" fill="#84BE84" rx="3" ry="3" style="stroke:#038048;stroke-width:1;"/><text fill="#000000" font-family="sans-serif" font-size="14" lengthAdjust="spacing" textLength="127.3398" x="387" y="212.4951">timeOutCallback()</text></g><!--class ISensing--><g id="elem_ISensing"><rect codeLine="12" fill="#F1F1F1" height="64.2969" id="ISensing" rx="2.5" ry="2.5" style="stroke:#181818;stroke-width:0.5;" width="163.0127" x="49" y="155.5"/><ellipse cx="96.5337" cy="171.5" fill="#B4A7E5" rx="11" ry="11" style="stroke:#181818;stroke-width:1;"/><path d="M92.4556,167.2656 L92.4556,165.1094 L99.8462,165.1094 L99.8462,167.2656 L97.3774,167.2656 L97.3774,175.3438 L99.8462,175.3438 L99.8462,177.5 L92.4556,177.5 L92.4556,175.3438 L94.9243,175.3438 L94.9243,167.2656 L92.4556,167.2656 Z " fill="#000000"/><text fill="#000000" font-family="sans-serif" font-size="14" font-style="italic" lengthAdjust="spacing" textLength="59.4453" x="117.0337" y="176.3467">ISensing</text><line style="stroke:#181818;stroke-width:0.5;" x1="50" x2="211.0127" y1="187.5" y2="187.5"/><line style="stroke:#181818;stroke-width:0.5;" x1="50" x2="211.0127" y1="195.5" y2="195.5"/><ellipse cx="60" cy="209.1484" fill="#84BE84" rx="3" ry="3" style="stroke:#038048;stroke-width:1;"/><text fill="#000000" font-family="sans-serif" font-size="14" lengthAdjust="spacing" textLength="137.0127" x="69" y="212.4951">proximityCallback()</text></g><!--class SensingDoor--><g id="elem_SensingDoor"><rect codeLine="16" fill="#F1F1F1" height="80.5938" id="SensingDoor" rx="2.5" ry="2.5" style="stroke:#181818;stroke-width:0.5;" width="145.8613" x="122.5" y="312"/><ellipse cx="148.6951" cy="328" fill="#ADD1B2" rx="11" ry="11" style="stroke:#181818;stroke-width:1;"/><path d="M151.6638,333.6406 Q151.0857,333.9375 150.4451,334.0781 Q149.8044,334.2344 149.1013,334.2344 Q146.6013,334.2344 145.2732,332.5938 Q143.9607,330.9375 143.9607,327.8125 Q143.9607,324.6875 145.2732,323.0313 Q146.6013,321.375 149.1013,321.375 Q149.8044,321.375 150.4451,321.5313 Q151.1013,321.6875 151.6638,321.9844 L151.6638,324.7031 Q151.0388,324.125 150.4451,323.8594 Q149.8513,323.5781 149.2263,323.5781 Q147.8826,323.5781 147.1951,324.6563 Q146.5076,325.7188 146.5076,327.8125 Q146.5076,329.9063 147.1951,330.9844 Q147.8826,332.0469 149.2263,332.0469 Q149.8513,332.0469 150.4451,331.7813 Q151.0388,331.5 151.6638,330.9219 L151.6638,333.6406 Z " fill="#000000"/><text fill="#000000" font-family="sans-serif" font-size="14" lengthAdjust="spacing" textLength="88.9834" x="165.1829" y="332.8467">SensingDoor</text><line style="stroke:#181818;stroke-width:0.5;" x1="123.5" x2="267.3613" y1="344" y2="344"/><rect fill="none" height="6" style="stroke:#C82930;stroke-width:1;" width="6" x="130.5" y="354.6484"/><text fill="#000000" font-family="sans-serif" font-size="14" lengthAdjust="spacing" textLength="113.1826" x="142.5" y="360.9951">boolean _locked</text><rect fill="none" height="6" style="stroke:#C82930;stroke-width:1;" width="6" x="130.5" y="370.9453"/><text fill="#000000" font-family="sans-serif" font-size="14" lengthAdjust="spacing" textLength="119.8613" x="142.5" y="377.292">boolean _opened</text><line style="stroke:#181818;stroke-width:0.5;" x1="123.5" x2="267.3613" y1="384.5938" y2="384.5938"/></g><!--class TimedDoor--><g id="elem_TimedDoor"><rect codeLine="21" fill="#F1F1F1" height="96.8906" id="TimedDoor" rx="2.5" ry="2.5" style="stroke:#181818;stroke-width:0.5;" width="145.8613" x="335.5" y="304"/><ellipse cx="366.9769" cy="320" fill="#ADD1B2" rx="11" ry="11" style="stroke:#181818;stroke-width:1;"/><path d="M369.9456,325.6406 Q369.3675,325.9375 368.7269,326.0781 Q368.0862,326.2344 367.3831,326.2344 Q364.8831,326.2344 363.555,324.5938 Q362.2425,322.9375 362.2425,319.8125 Q362.2425,316.6875 363.555,315.0313 Q364.8831,313.375 367.3831,313.375 Q368.0862,313.375 368.7269,313.5313 Q369.3831,313.6875 369.9456,313.9844 L369.9456,316.7031 Q369.3206,316.125 368.7269,315.8594 Q368.1331,315.5781 367.5081,315.5781 Q366.1644,315.5781 365.4769,316.6563 Q364.7894,317.7188 364.7894,319.8125 Q364.7894,321.9063 365.4769,322.9844 Q366.1644,324.0469 367.5081,324.0469 Q368.1331,324.0469 368.7269,323.7813 Q369.3206,323.5 369.9456,322.9219 L369.9456,325.6406 Z " fill="#000000"/><text fill="#000000" font-family="sans-serif" font-size="14" lengthAdjust="spacing" textLength="77.2461" x="384.6384" y="324.8467">TimedDoor</text><line style="stroke:#181818;stroke-width:0.5;" x1="336.5" x2="480.3613" y1="336" y2="336"/><rect fill="none" height="6" style="stroke:#C82930;stroke-width:1;" width="6" x="343.5" y="346.6484"/><text fill="#000000" font-family="sans-serif" font-size="14" lengthAdjust="spacing" textLength="113.1826" x="355.5" y="352.9951">boolean _locked</text><rect fill="none" height="6" style="stroke:#C82930;stroke-width:1;" width="6" x="343.5" y="362.9453"/><text fill="#000000" font-family="sans-serif" font-size="14" lengthAdjust="spacing" textLength="119.8613" x="355.5" y="369.292">boolean _opened</text><rect fill="none" height="6" style="stroke:#C82930;stroke-width:1;" width="6" x="343.5" y="379.2422"/><text fill="#000000" font-family="sans-serif" font-size="14" lengthAdjust="spacing" text-decoration="underline" textLength="93.126" x="355.5" y="385.5889">int TIME_OUT</text><line style="stroke:#181818;stroke-width:0.5;" x1="336.5" x2="480.3613" y1="392.8906" y2="392.8906"/></g><!--class Sensor--><g id="elem_Sensor"><rect codeLine="27" fill="#F1F1F1" height="64.2969" id="Sensor" rx="2.5" ry="2.5" style="stroke:#181818;stroke-width:0.5;" width="242.5078" x="7" y="7"/><ellipse cx="100.0098" cy="23" fill="#ADD1B2" rx="11" ry="11" style="stroke:#181818;stroke-width:1;"/><path d="M102.9785,28.6406 Q102.4004,28.9375 101.7598,29.0781 Q101.1191,29.2344 100.416,29.2344 Q97.916,29.2344 96.5879,27.5938 Q95.2754,25.9375 95.2754,22.8125 Q95.2754,19.6875 96.5879,18.0313 Q97.916,16.375 100.416,16.375 Q101.1191,16.375 101.7598,16.5313 Q102.416,16.6875 102.9785,16.9844 L102.9785,19.7031 Q102.3535,19.125 101.7598,18.8594 Q101.166,18.5781 100.541,18.5781 Q99.1973,18.5781 98.5098,19.6563 Q97.8223,20.7188 97.8223,22.8125 Q97.8223,24.9063 98.5098,25.9844 Q99.1973,27.0469 100.541,27.0469 Q101.166,27.0469 101.7598,26.7813 Q102.3535,26.5 102.9785,25.9219 L102.9785,28.6406 Z " fill="#000000"/><text fill="#000000" font-family="sans-serif" font-size="14" lengthAdjust="spacing" textLength="47.9883" x="120.5098" y="27.8467">Sensor</text><line style="stroke:#181818;stroke-width:0.5;" x1="8" x2="248.5078" y1="39" y2="39"/><line style="stroke:#181818;stroke-width:0.5;" x1="8" x2="248.5078" y1="47" y2="47"/><ellipse cx="18" cy="60.6484" fill="#84BE84" rx="3" ry="3" style="stroke:#038048;stroke-width:1;"/><text fill="#000000" font-family="sans-serif" font-size="14" lengthAdjust="spacing" textLength="216.5078" x="27" y="63.9951">register(ISensing sensingDoor)</text></g><!--class Timer--><g id="elem_Timer"><rect codeLine="31" fill="#F1F1F1" height="64.2969" id="Timer" rx="2.5" ry="2.5" style="stroke:#181818;stroke-width:0.5;" width="318.1406" x="285.5" y="7"/><ellipse cx="420.0962" cy="23" fill="#ADD1B2" rx="11" ry="11" style="stroke:#181818;stroke-width:1;"/><path d="M423.0649,28.6406 Q422.4868,28.9375 421.8462,29.0781 Q421.2056,29.2344 420.5024,29.2344 Q418.0024,29.2344 416.6743,27.5938 Q415.3618,25.9375 415.3618,22.8125 Q415.3618,19.6875 416.6743,18.0313 Q418.0024,16.375 420.5024,16.375 Q421.2056,16.375 421.8462,16.5313 Q422.5024,16.6875 423.0649,16.9844 L423.0649,19.7031 Q422.4399,19.125 421.8462,18.8594 Q421.2524,18.5781 420.6274,18.5781 Q419.2837,18.5781 418.5962,19.6563 Q417.9087,20.7188 417.9087,22.8125 Q417.9087,24.9063 418.5962,25.9844 Q419.2837,27.0469 420.6274,27.0469 Q421.2524,27.0469 421.8462,26.7813 Q422.4399,26.5 423.0649,25.9219 L423.0649,28.6406 Z " fill="#000000"/><text fill="#000000" font-family="sans-serif" font-size="14" lengthAdjust="spacing" textLength="40.4482" x="440.5962" y="27.8467">Timer</text><line style="stroke:#181818;stroke-width:0.5;" x1="286.5" x2="602.6406" y1="39" y2="39"/><line style="stroke:#181818;stroke-width:0.5;" x1="286.5" x2="602.6406" y1="47" y2="47"/><ellipse cx="296.5" cy="60.6484" fill="#84BE84" rx="3" ry="3" style="stroke:#038048;stroke-width:1;"/><text fill="#000000" font-family="sans-serif" font-size="14" lengthAdjust="spacing" textLength="292.1406" x="305.5" y="63.9951">register(long timeOut, ITimed timedDoor)</text></g><!--reverse link IDoor to SensingDoor--><g id="link_IDoor_SensingDoor"><path codeLine="35" d="M248.4229,259.7359 C235.6129,281.9659 230.13,291.46 218.4,311.79 " fill="none" id="IDoor-backto-SensingDoor" style="stroke:#181818;stroke-width:1;stroke-dasharray:7.0,7.0;"/><polygon fill="none" points="257.41,244.14,243.2243,256.7402,253.6215,262.7316,257.41,244.14" style="stroke:#181818;stroke-width:1;"/></g><!--reverse link IDoor to TimedDoor--><g id="link_IDoor_TimedDoor"><path codeLine="36" d="M340.7351,258.6769 C354.9451,278.1369 360.14,285.25 373.81,303.99 " fill="none" id="IDoor-backto-TimedDoor" style="stroke:#181818;stroke-width:1;stroke-dasharray:7.0,7.0;"/><polygon fill="none" points="330.12,244.14,335.8894,262.2152,345.5807,255.1385,330.12,244.14" style="stroke:#181818;stroke-width:1;"/></g><!--reverse link ISensing to SensingDoor--><g id="link_ISensing_SensingDoor"><path codeLine="37" d="M149.5453,236.2605 C160.0053,262.5005 168.39,283.51 179.71,311.91 " fill="none" id="ISensing-backto-SensingDoor" style="stroke:#181818;stroke-width:1;stroke-dasharray:7.0,7.0;"/><polygon fill="none" points="142.88,219.54,143.9718,238.4822,155.1187,234.0387,142.88,219.54" style="stroke:#181818;stroke-width:1;"/></g><!--reverse link ITimed to TimedDoor--><g id="link_ITimed_TimedDoor"><path codeLine="38" d="M433.056,237.1399 C427.946,260.9699 424.56,276.69 418.72,303.89 " fill="none" id="ITimed-backto-TimedDoor" style="stroke:#181818;stroke-width:1;stroke-dasharray:7.0,7.0;"/><polygon fill="none" points="436.83,219.54,427.1893,235.8819,438.9226,238.3979,436.83,219.54" style="stroke:#181818;stroke-width:1;"/></g><!--link Sensor to ISensing--><g id="link_Sensor_ISensing"><path codeLine="39" d="M128.92,71.07 C129.26,95.93 129.6579,124.6306 129.9979,149.4806 " fill="none" id="Sensor-to-ISensing" style="stroke:#181818;stroke-width:1;stroke-dasharray:7.0,7.0;"/><polygon fill="#181818" points="130.08,155.48,133.9565,146.4261,130.0116,150.4805,125.9572,146.5356,130.08,155.48" style="stroke:#181818;stroke-width:1;"/></g><!--link Timer to ITimed--><g id="link_Timer_ITimed"><path codeLine="40" d="M444.29,71.07 C444.12,95.93 443.921,124.6301 443.751,149.4801 " fill="none" id="Timer-to-ITimed" style="stroke:#181818;stroke-width:1;stroke-dasharray:7.0,7.0;"/><polygon fill="#181818" points="443.71,155.48,447.7715,146.5076,443.7442,150.4801,439.7717,146.4528,443.71,155.48" style="stroke:#181818;stroke-width:1;"/></g><!--SRC=[bP4n3y8W48LtViMDDcf_WN5H1mVJmJetYASX8cSA9fhQ_ovInA8kihtBUvVl7L9RhFTS82pdH3Kq3DmRWY9n76H1N7GYwOmw2g78e5CjO_AzgvGdtCLbrgdYOcTSgIttYrBt6hMH-X3zvvgkyYJjBKq8nOs1O0wqOzWIAUGQgYSZxlgJ9wYRnAYd-YCuXiPORgLemT52kLmjgc9JfYozezLuaCQr6iH6vWsRfHm_KefS8jngzBgXVJ7xVFT9atkUz-_G7yUEB49ysxlL7_vG9i-dyKTOH-f7tlW0]--></g></svg>